<?xml version="1.0" encoding="UTF-8"?>
<svg id="Camada_2" xmlns="http://www.w3.org/2000/svg" viewBox="0 0 874 45.5">
  <defs>
    <style>
      .cls-1 {
        fill: #fff;
      }
    </style>
  </defs>
  <g id="Camada_1-2" data-name="Camada_1">
    <g id="Layer_1">
      <g>
        <g>
          <g>
            <g>
              <polygon class="cls-1" points="73.3 15.8 73.3 22.8 57.6 7.1 57.6 .1 73.3 15.8"/>
              <polygon class="cls-1" points="73.3 22.8 73.3 29.8 57.6 45.5 57.6 38.5 73.3 22.8"/>
            </g>
            <g>
              <polygon class="cls-1" points="0 29.8 0 22.8 15.7 38.5 15.7 45.5 0 29.8"/>
              <polygon class="cls-1" points="0 22.8 0 15.8 15.7 .1 15.7 7.1 0 22.8"/>
            </g>
          </g>
          <g>
            <polygon class="cls-1" points="39.2 12.3 44.5 7.1 29.7 7.1 24.5 12.3 19.2 17.5 19.2 28 24.5 33.2 24.5 33.2 24.5 12.3 39.2 12.3"/>
            <polygon class="cls-1" points="29.7 38.5 39.2 38.5 44.5 33.2 24.5 33.2 29.7 38.5"/>
            <polygon class="cls-1" points="54.1 20.2 49.7 20.2 49.7 15.8 44.5 15.8 44.5 20.2 40.1 20.2 40.1 25.4 44.5 25.4 44.5 29.8 49.7 29.8 49.7 25.4 54.1 25.4 54.1 20.2"/>
          </g>
        </g>
        <g>
          <g>
            <path class="cls-1" d="M216.3,17.5v-2.8c0-.5-.2-.9-.5-1.2l-5.9-5.9c-.3-.3-.8-.5-1.2-.5h-23c-.5,0-.9.2-1.2.5l-5.9,5.9c-.3.3-.5.8-.5,1.2v2c0,.5.2.9.5,1.2l6.8,6.8c.3.3.8.5,1.2.5h22.8c1,0,1.7.8,1.7,1.7v4.4c0,.9-.8,1.7-1.7,1.7h-24.5c-1,0-1.7-.8-1.7-1.7v-3.5h-5.2v2.8c0,.5.2.9.5,1.2l5.9,5.9c.3.3.8.5,1.2.5h23c.5,0,.9-.2,1.2-.5l5.9-5.9c.3-.3.5-.8.5-1.2v-2c0-.5-.2-.9-.5-1.2l-6.8-6.8c-.3-.3-.8-.5-1.2-.5h-22.8c-1,0-1.7-.8-1.7-1.7v-4.4c0-1,.8-1.7,1.7-1.7h24.4c1,0,1.7.8,1.7,1.7v3.5h5.3Z"/>
            <path class="cls-1" d="M301.8,17.5v-2.8c0-.5-.2-.9-.5-1.2l-5.9-5.9c-.4-.3-.9-.5-1.3-.5h-23c-.5,0-.9.2-1.2.5l-5.9,5.9c-.3.3-.5.8-.5,1.2v2c0,.5.2.9.5,1.2l6.8,6.8c.3.3.8.5,1.2.5h22.8c1,0,1.7.8,1.7,1.7v4.4c0,.9-.8,1.7-1.7,1.7h-24.5c-1,0-1.7-.8-1.7-1.7v-3.5h-5.2v2.8c0,.5.2.9.5,1.2l5.9,5.9c.3.3.8.5,1.2.5h23c.5,0,.9-.2,1.2-.5l5.9-5.9c.3-.3.5-.8.5-1.2v-2c0-.5-.2-.9-.5-1.2l-6.8-6.8c-.3-.3-.8-.5-1.2-.5h-22.8c-1,0-1.7-.8-1.7-1.7v-4.4c0-1,.8-1.7,1.7-1.7h24.4c1,0,1.7.8,1.7,1.7v3.5h5.4Z"/>
            <path class="cls-1" d="M170.4,13.5l-5.9-5.9c-.3-.3-.8-.5-1.2-.5h-23c-.5,0-.9.2-1.2.5l-5.9,5.9c-.3.3-.5.8-.5,1.2v23.7h5.2v-10.4h23.7c.5,0,.9-.2,1.2-.5l1.7-1.7c.5-.4,1.2-.1,1.2.5h0v12.2h5.2V14.8c0-.5,0-.9-.5-1.3ZM142,22.8c-.5,0-.9.2-1.2.5l-1.7,1.7c-.5.5-1.2.1-1.2-.5v-10.4c0-1,.8-1.7,1.7-1.7h24.4c1,0,1.7.8,1.7,1.7v8.7h-23.7Z"/>
            <path class="cls-1" d="M125.1,24l-3-3v-6.2c0-.5-.2-.9-.5-1.2l-5.9-5.9c-.3-.3-.8-.5-1.2-.5h-19.6c-.5,0-.9.2-1.2.5l-5.9,5.9c-.3.3-.5.8-.5,1.2v16c0,.5.2.9.5,1.2l5.9,5.9c.3.3.8.5,1.2.5h23c.5,0,.9-.2,1.2-.5l5.9-5.9c.3-.3.5-.8.5-1.2v-5.5c0-.5,0-1-.4-1.3h0ZM120.4,31.5c0,1-.8,1.7-1.7,1.7h-24.5c-1,0-1.7-.8-1.7-1.7v-4.4c0-1,.8-1.7,1.7-1.7h24.4c1,0,1.7.8,1.7,1.7h0v4.4h.1ZM116.9,18.4c0,1-.8,1.7-1.7,1.7h-21c-1,0-1.7-.8-1.7-1.7v-4.4c0-1,.8-1.7,1.7-1.7h20.9c1,0,1.7.8,1.7,1.7h0v4.4h.1Z"/>
            <path class="cls-1" d="M230.3,33.2c-1,0-1.7-.8-1.7-1.7v-4.4c0-1,.8-1.7,1.7-1.7h16.7c.5,0,.9-.2,1.2-.5l4.7-4.7h-22.7c-1,0-1.7-.8-1.7-1.7v-4.4c0-1,.8-1.7,1.7-1.7h29.7l-4.7-4.7c-.3-.4-.8-.6-1.2-.6h-23c-.5,0-.9.2-1.2.5l-5.9,5.9c-.3.3-.5.8-.5,1.2v16c0,.5.2.9.5,1.2l5.9,5.9c.3.3.8.5,1.2.5h23c.5,0,.9-.2,1.2-.5l4.7-4.7h-29.6v.1Z"/>
          </g>
          <g>
            <path class="cls-1" d="M357.1,17l-9.4-9.4c-.3-.3-.8-.5-1.2-.5h-19.5c-.5,0-.9.2-1.2.5l-5.9,5.9c-.3.3-.5.8-.5,1.2v16c0,.5.2.9.5,1.2l5.9,5.9c.3.3.8.5,1.2.5h19.5c.5,0,.9-.2,1.2-.5l9.4-9.4c.3-.3.5-.8.5-1.2v-9c0-.4-.2-.8-.5-1.2ZM326.2,33.2c-1,0-1.7-.8-1.7-1.7V14.1c0-1,.8-1.7,1.7-1.7h17.7c.5,0,.9.2,1.2.5l6.7,6.7c.3.3.5.8.5,1.2v4.8c0,.5-.2.9-.5,1.2l-5.9,5.9c-.3.3-.8.5-1.2.5h-18.5Z"/>
            <path class="cls-1" d="M371.5,33.2c-1,0-1.7-.8-1.7-1.7v-4.4c0-1,.8-1.7,1.7-1.7h16.7c.5,0,.9-.2,1.2-.5l4.7-4.7h-22.7c-1,0-1.7-.8-1.7-1.7v-4.4c0-1,.8-1.7,1.7-1.7h29.7l-4.7-4.7c-.3-.3-.8-.5-1.2-.5h-23c-.5,0-.9.2-1.2.5l-5.9,5.9c-.3.3-.5.8-.5,1.2v16c0,.5.2.9.5,1.2l5.9,5.9c.3.3.8.5,1.2.5h23c.5,0,.9-.2,1.2-.5l4.7-4.7h-29.6Z"/>
          </g>
        </g>
        <g>
          <path class="cls-1" d="M685.6,17.5v-2.8c0-.5-.2-.9-.5-1.2l-5.9-5.9c-.3-.3-.8-.5-1.2-.5h-23c-.5,0-.9.2-1.2.5l-5.9,5.9c-.3.3-.5.8-.5,1.2v2c0,.5.2.9.5,1.2l6.8,6.8c.3.3.8.5,1.2.5h22.8c1,0,1.7.8,1.7,1.7v4.4c0,.9-.8,1.7-1.7,1.7h-24.5c-1,0-1.7-.8-1.7-1.7v-3.5h-5.2v2.9c0,.5.2.9.5,1.2l5.9,5.9c.3.3.8.5,1.2.5h23c.5,0,.9-.2,1.2-.5l5.9-5.9c.3-.3.5-.8.5-1.2v-2c0-.5-.2-.9-.5-1.2l-6.8-6.8c-.3-.3-.8-.5-1.2-.5h-22.8c-1,0-1.7-.8-1.7-1.7v-4.4c0-1,.8-1.7,1.7-1.7h24.4c1,0,1.7.8,1.7,1.7v3.5h5.3v-.1Z"/>
          <path class="cls-1" d="M874,17.5v-2.8c0-.5-.2-.9-.5-1.2l-5.9-5.9c-.3-.3-.8-.5-1.2-.5h-23c-.5,0-.9.2-1.2.5l-5.9,5.9c-.3.3-.5.8-.5,1.2v2c0,.5.2.9.5,1.2l6.8,6.8c.3.3.8.5,1.2.5h22.8c1,0,1.7.8,1.7,1.7v4.4c0,.9-.8,1.7-1.7,1.7h-24.5c-1,0-1.7-.8-1.7-1.7v-3.5h-5.2v2.9c0,.5.2.9.5,1.2l5.9,5.9c.3.3.8.5,1.2.5h23c.5,0,.9-.2,1.2-.5l5.9-5.9c.3-.3.5-.8.5-1.2v-2c0-.5-.2-.9-.5-1.2l-6.8-6.8c-.3-.3-.8-.5-1.2-.5h-22.8c-1,0-1.7-.8-1.7-1.7v-4.4c0-1,.8-1.7,1.7-1.7h24.4c1,0,1.7.8,1.7,1.7v3.5h5.3v-.1Z"/>
          <path class="cls-1" d="M743.2,17.5v-2.8c0-.5-.2-.9-.5-1.2l-6-6c-.3-.3-.8-.5-1.2-.5h-23c-.5,0-.9.2-1.2.5l-6,6c-.3.3-.5.8-.5,1.2v16c0,.5.2.9.5,1.2l6,6c.3.3.8.5,1.2.5h18.5c.6,0,1,.8.5,1.2l-.6.6c-1.1,1.1-2.6,1.7-4.2,1.7h-7.3c-.5,0-.9.2-1.2.5l-3,3h13.2c.5,0,.9-.2,1.2-.5l2.5-2.5c.3-.3.5-.8.5-1.2v-2.8h2.8c.5,0,.9-.2,1.2-.5l6-6c.3-.3.5-.8.5-1.2v-2.8h-5.2v3.5c0,1-.8,1.7-1.7,1.7h-24.4c-1,0-1.7-.8-1.7-1.7V14c0-.9.8-1.7,1.7-1.7h24.5c.9,0,1.7.8,1.7,1.7v3.5h5.2Z"/>
          <path class="cls-1" d="M549,10l-2.5-2.5c-.3-.3-.8-.5-1.2-.5h-2.5c-.7,0-1.3.4-1.6,1l-11.9,26.9h0c-.6,1.3-2.5,1.3-3.1,0h0l-11.9-26.9c-.3-.6-.9-1-1.6-1h-2.5c-.5,0-.9.2-1.2.5l-2.5,2.5c-.3.3-.5.8-.5,1.2v27.2h5.2V15.8c0-.2.2-.2.3,0l10.2,22.6h12.2l10.1-22.5h.3v22.6h5.2V11.2c0-.4-.1-.9-.5-1.2Z"/>
          <path class="cls-1" d="M639.7,13.5l-5.9-5.9c-.3-.3-.8-.5-1.2-.5h-23c-.5,0-.9.2-1.2.5l-5.9,5.9c-.3.3-.5.8-.5,1.2v16c0,.5.2.9.5,1.2l5.9,5.9c.3.3.8.5,1.2.5h23c.5,0,.9-.2,1.2-.5l5.9-5.9c.3-.3.5-.8.5-1.2V14.7c0-.4-.1-.9-.5-1.2ZM633.3,12.2c1,0,1.7.8,1.7,1.7v17.4c0,1-.8,1.7-1.7,1.7h-24.4c-1,0-1.7-.8-1.7-1.7V14c0-1,.8-1.7,1.7-1.7h24.4v-.1Z"/>
          <path class="cls-1" d="M498.4,13.5l-5.9-5.9c-.3-.3-.8-.5-1.2-.5h-23c-.5,0-.9.2-1.2.5l-5.9,5.9c-.3.3-.5.8-.5,1.2v16c0,.5.2.9.5,1.2l5.9,5.9c.3.3.8.5,1.2.5h23c.5,0,.9-.2,1.2-.5l5.9-5.9c.3-.3.5-.8.5-1.2V14.7c.1-.4,0-.9-.5-1.2ZM492,12.2c1,0,1.7.8,1.7,1.7v17.4c0,1-.8,1.7-1.7,1.7h-24.4c-1,0-1.7-.8-1.7-1.7V14c0-1,.8-1.7,1.7-1.7h24.4v-.1Z"/>
          <path class="cls-1" d="M594.4,13.5l-5.9-5.9c-.3-.3-.8-.5-1.2-.5h-23c-.5,0-.9.2-1.2.5l-5.9,5.9c-.3.3-.5.8-.5,1.2v23.7h5.2v-7c0-1,.8-1.7,1.7-1.7h23.7c.5,0,.9-.2,1.2-.5l5.9-5.9c.3-.3.5-.8.5-1.2v-7.4c0-.4-.2-.9-.5-1.2h0ZM588,24.5h-24.5c-1,0-1.7-.8-1.7-1.7v-8.7c0-1,.8-1.7,1.7-1.7h24.4c1,0,1.7.8,1.7,1.7v8.6c.1,1-.7,1.7-1.6,1.8h0Z"/>
          <g>
            <path class="cls-1" d="M788,13.5l-5.9-5.9c-.3-.3-.8-.5-1.2-.5h-23c-.5,0-.9.2-1.2.5l-5.9,5.9c-.3.3-.5.8-.5,1.2v16c0,.5.2.9.5,1.2l5.9,5.9c.3.3.8.5,1.2.5h23c.5,0,.9-.2,1.2-.5l5.9-5.9c.3-.3.5-.8.5-1.2V14.7c0-.4-.2-.9-.5-1.2ZM781.5,12.2c1,0,1.7.8,1.7,1.7v17.4c0,1-.8,1.7-1.7,1.7h-24.4c-1,0-1.7-.8-1.7-1.7V14c0-1,.8-1.7,1.7-1.7h24.4v-.1Z"/>
            <path class="cls-1" d="M769.9,4l.7.7c.3.3.8.5,1.2.5h3.8c.5,0,.9-.2,1.2-.5l3-3h-9.7c-.5,0-.9-.2-1.2-.5l-.7-.7C767.9.2,767.4,0,767,0h-3.8c-.5,0-.9.2-1.2.5l-3,3h9.7c.4,0,.8.2,1.2.5Z"/>
          </g>
          <path class="cls-1" d="M453.6,17.5v-2.8c0-.5-.2-.9-.5-1.2l-6-6c-.3-.3-.8-.5-1.2-.5h-23c-.5,0-.9.2-1.2.5l-6,6c-.3.3-.5.8-.5,1.2v16c0,.5.2.9.5,1.2l6,6c.3.3.8.5,1.2.5h23c.5,0,.9-.2,1.2-.5l6-6c.3-.3.5-.8.5-1.2v-2.8h-5.2v3.5c0,1-.8,1.7-1.7,1.7h-24.5c-1,0-1.7-.8-1.7-1.7V14c0-.9.8-1.7,1.7-1.7h24.5c.9,0,1.7.8,1.7,1.7v3.5h5.2Z"/>
          <path class="cls-1" d="M802.5,33.2c-1,0-1.7-.8-1.7-1.7v-4.4c0-1,.8-1.7,1.7-1.7h16.7c.5,0,.9-.2,1.2-.5l4.7-4.7h-22.7c-1,0-1.7-.8-1.7-1.7v-4.4c0-1,.8-1.7,1.7-1.7h29.7l-4.7-4.7c-.3-.3-.8-.5-1.2-.5h-23c-.5,0-.9.2-1.2.5l-5.9,5.9c-.3.3-.5.8-.5,1.2v16c0,.5.2.9.5,1.2l5.9,5.9c.3.3.8.5,1.2.5h23c.5,0,.9-.2,1.2-.5l4.7-4.7h-29.6Z"/>
          <path class="cls-1" d="M692.6,0v2.8c0,.5.2.9.5,1.2l1.2,1.2c1,1,1,2.5,0,3.5l-1.2,1.2c-.3.3-.5.8-.5,1.2v27.2h5.2V0h-5.2Z"/>
        </g>
      </g>
    </g>
  </g>
</svg>