<?xml version="1.0" encoding="utf-8"?>
<!-- Generator: Adobe Illustrator 28.1.0, SVG Export Plug-In . SVG Version: 6.00 Build 0)  -->
<svg version="1.1" id="Layer_1" xmlns="http://www.w3.org/2000/svg" xmlns:xlink="http://www.w3.org/1999/xlink" x="0px" y="0px"
	 viewBox="0 0 230.2 45.4" style="enable-background:new 0 0 230.2 45.4;" xml:space="preserve">
<style type="text/css">
	.st0{fill:#FFFFFF;}
</style>
<g>
	<g>
		<g>
			<path class="st0" d="M125.1,13.5l-5.9-5.9c-0.3-0.3-0.8-0.5-1.2-0.5h-23c-0.5,0-0.9,0.2-1.2,0.5l-5.9,5.9
				c-0.3,0.3-0.5,0.8-0.5,1.2v16c0,0.5,0.2,0.9,0.5,1.2l5.9,5.9c0.3,0.3,0.8,0.5,1.2,0.5h23c0.5,0,0.9-0.2,1.2-0.5l5.9-5.9
				c0.3-0.3,0.5-0.8,0.5-1.2v-16C125.6,14.2,125.4,13.8,125.1,13.5z M118.6,12.2c1,0,1.7,0.8,1.7,1.7v17.4c0,1-0.8,1.7-1.7,1.7H94.2
				c-1,0-1.7-0.8-1.7-1.7V14c0-1,0.8-1.7,1.7-1.7H118.6z"/>
		</g>
		<g>
			<path class="st0" d="M137.8,21v-7c0-1,0.8-1.7,1.7-1.7h29.7l-4.7-4.7c-0.3-0.3-0.8-0.5-1.2-0.5h-23c-0.5,0-0.9,0.2-1.2,0.5
				l-5.9,5.9c-0.3,0.3-0.5,0.8-0.5,1.2v23.7h5.2v-8.7c0-1,0.8-1.7,1.7-1.7l16.7,0c0.5,0,0.9-0.2,1.2-0.5l4.7-4.7h-22.7
				C138.6,22.7,137.8,21.9,137.8,21z"/>
		</g>
		<g>
			<g>
				<path class="st0" d="M217.5,23.9l-3-3v-6.2c0-0.5-0.2-0.9-0.5-1.2l-5.9-5.9c-0.3-0.3-0.8-0.5-1.2-0.5h-19.5
					c-0.5,0-0.9,0.2-1.2,0.5l-5.9,5.9c-0.3,0.3-0.5,0.8-0.5,1.2v16c0,0.5,0.2,0.9,0.5,1.2l5.9,5.9c0.3,0.3,0.8,0.5,1.2,0.5l23,0
					c0.5,0,0.9-0.2,1.2-0.5l5.9-5.9c0.3-0.3,0.5-0.8,0.5-1.2v-5.5C218.1,24.7,217.9,24.2,217.5,23.9z M212.8,31.4
					c0,1-0.8,1.7-1.7,1.7l0,0h-24.4l0,0c-1,0-1.7-0.8-1.7-1.7V27c0-1,0.8-1.7,1.7-1.7l0,0h24.4l0,0c1,0,1.7,0.8,1.7,1.7l0,0
					L212.8,31.4L212.8,31.4z M209.3,18.3c0,1-0.8,1.7-1.7,1.7h-21c-1,0-1.7-0.8-1.7-1.7v-4.4c0-1,0.8-1.7,1.7-1.7l0,0h20.9l0,0
					c1,0,1.7,0.8,1.7,1.7l0,0L209.3,18.3L209.3,18.3z"/>
			</g>
			<g>
				<path class="st0" d="M225,0v2.8c0,0.5,0.2,0.9,0.5,1.2l1.2,1.2c1,1,1,2.5,0,3.5l-1.2,1.2c-0.3,0.3-0.5,0.8-0.5,1.2v27.2h5.2V0
					H225z"/>
			</g>
		</g>
	</g>
	<g>
		<g>
			<g>
				<g>
					<polygon class="st0" points="73.3,15.7 73.3,22.7 57.6,7 57.6,0 					"/>
					<polygon class="st0" points="73.3,22.7 73.3,29.7 57.6,45.4 57.6,38.4 					"/>
				</g>
				<g>
					<polygon class="st0" points="0,29.7 0,22.7 15.7,38.4 15.7,45.4 					"/>
					<polygon class="st0" points="0,22.7 0,15.7 15.7,0 15.7,7 					"/>
				</g>
			</g>
		</g>
		<path class="st0" d="M38.4,1.7L19.2,20.9v7l15.7,15.7l19.2-19.2v-7L38.4,1.7z M29.6,17.4l4.4,4.4l-7,7l-4.4-4.4L29.6,17.4z
			 M34.9,36.6l-4.4-4.4l7-7l4.4,4.4L34.9,36.6z M45.3,26.2L33.1,14l5.2-5.2l12.2,12.2L45.3,26.2z"/>
	</g>
</g>
</svg>
