<?xml version="1.0" encoding="utf-8"?>
<!-- Generator: Adobe Illustrator 28.1.0, SVG Export Plug-In . SVG Version: 6.00 Build 0)  -->
<svg version="1.1" id="Layer_1" xmlns="http://www.w3.org/2000/svg" xmlns:xlink="http://www.w3.org/1999/xlink" x="0px" y="0px"
	 viewBox="0 0 306.6 45.4" style="enable-background:new 0 0 306.6 45.4;" xml:space="preserve">
<style type="text/css">
	.st0{fill:#FFFFFF;}
</style>
<g>
	<g>
		<g>
			<g>
				<polygon class="st0" points="73.3,15.7 73.3,22.7 57.6,7 57.6,0 				"/>
				<polygon class="st0" points="73.3,22.7 73.3,29.7 57.6,45.4 57.6,38.4 				"/>
			</g>
			<g>
				<polygon class="st0" points="0,29.7 0,22.7 15.7,38.4 15.7,45.4 				"/>
				<polygon class="st0" points="0,22.7 0,15.7 15.7,0 15.7,7 				"/>
			</g>
		</g>
		<g>
			<polygon class="st0" points="26.2,22.7 26.2,12.2 31.4,12.2 36.6,7 20.9,7 20.9,17.4 			"/>
			<polygon class="st0" points="41.9,7 36.6,12.2 47.1,12.2 47.1,17.4 52.3,22.7 52.3,7 			"/>
			<polygon class="st0" points="47.1,22.7 47.1,33.1 41.9,33.1 36.6,38.4 52.3,38.4 52.3,27.9 			"/>
			<polygon class="st0" points="26.2,27.9 20.9,22.7 20.9,38.4 31.4,38.4 36.6,33.1 26.2,33.1 			"/>
			<rect x="31.4" y="17.4" class="st0" width="10.5" height="10.5"/>
		</g>
	</g>
	<g>
		<g>
			<g>
				<path class="st0" d="M218,17.4v-2.8c0-0.5-0.2-0.9-0.5-1.2l-6-5.9c-0.3-0.3-0.8-0.5-1.2-0.5h-23c-0.5,0-0.9,0.2-1.2,0.5l-6,6
					c-0.3,0.3-0.5,0.8-0.5,1.2v16c0,0.5,0.2,0.9,0.5,1.2l6,6c0.3,0.3,0.8,0.5,1.2,0.5h23c0.5,0,0.9-0.2,1.2-0.5l6-6
					c0.3-0.3,0.5-0.8,0.5-1.2v-2.8l-5.2,0l0,3.5c0,1-0.8,1.7-1.7,1.7h-24.4c-1,0-1.7-0.8-1.7-1.7V13.9c0-0.9,0.8-1.7,1.7-1.7H211
					c0.9,0,1.7,0.8,1.7,1.7v3.5L218,17.4z"/>
			</g>
			<g>
				<path class="st0" d="M262.8,16.9l-9.4-9.4C253,7.2,252.6,7,252.1,7h-19.5c-0.5,0-0.9,0.2-1.2,0.5l-5.9,5.9
					c-0.3,0.3-0.5,0.8-0.5,1.2v16c0,0.5,0.2,0.9,0.5,1.2l5.9,5.9c0.3,0.3,0.8,0.5,1.2,0.5h19.5c0.5,0,0.9-0.2,1.2-0.5l9.4-9.4
					c0.3-0.3,0.5-0.8,0.5-1.2l0-9C263.3,17.7,263.1,17.2,262.8,16.9z M231.9,33.1c-1,0-1.7-0.8-1.7-1.7V13.9c0-1,0.8-1.7,1.7-1.7
					h17.7c0.5,0,0.9,0.2,1.2,0.5l6.7,6.7c0.3,0.3,0.5,0.8,0.5,1.2v4.8c0,0.5-0.2,0.9-0.5,1.2l-5.9,5.9c-0.3,0.3-0.8,0.5-1.2,0.5
					L231.9,33.1z"/>
			</g>
			<g>
				<path class="st0" d="M276.9,33.1c-1,0-1.7-0.8-1.7-1.7V27c0-1,0.8-1.7,1.7-1.7l0,0h16.7c0.5,0,0.9-0.2,1.2-0.5l4.7-4.7h-22.7
					c-1,0-1.7-0.8-1.7-1.7v-4.4c0-1,0.8-1.7,1.7-1.7h29.6l-4.7-4.7c-0.3-0.3-0.8-0.5-1.2-0.5h-22.9c-0.5,0-0.9,0.2-1.2,0.5l-5.9,5.9
					c-0.3,0.3-0.5,0.8-0.5,1.2v16c0,0.5,0.2,0.9,0.5,1.2l5.9,5.9c0.3,0.3,0.8,0.5,1.2,0.5h22.9c0.5,0,0.9-0.2,1.2-0.5l4.7-4.7
					L276.9,33.1L276.9,33.1z"/>
			</g>
		</g>
		<g>
			<path class="st0" d="M125.1,13.5l-5.9-5.9c-0.3-0.3-0.8-0.5-1.2-0.5H94.9c-0.5,0-0.9,0.2-1.2,0.5l-5.9,5.9
				c-0.3,0.3-0.5,0.8-0.5,1.2v16c0,0.5,0.2,0.9,0.5,1.2l5.9,5.9c0.3,0.3,0.8,0.5,1.2,0.5h22.9c0.5,0,0.9-0.2,1.2-0.5l5.9-5.9
				c0.3-0.3,0.5-0.8,0.5-1.2v-16C125.6,14.2,125.4,13.8,125.1,13.5z M118.6,12.2c1,0,1.7,0.8,1.7,1.7v17.4c0,1-0.8,1.7-1.7,1.7H94.2
				c-1,0-1.7-0.8-1.7-1.7V14c0-1,0.8-1.7,1.7-1.7H118.6z"/>
		</g>
		<g>
			<path class="st0" d="M137.8,20.9v-7c0-1,0.8-1.7,1.7-1.7h29.6l-4.7-4.7c-0.3-0.3-0.8-0.5-1.2-0.5h-22.9c-0.5,0-0.9,0.2-1.2,0.5
				l-5.9,5.9c-0.3,0.3-0.5,0.8-0.5,1.2v23.7h5.2v-8.7c0-1,0.8-1.7,1.7-1.7l16.7,0c0.5,0,0.9-0.2,1.2-0.5l4.7-4.7h-22.7
				C138.6,22.7,137.8,21.9,137.8,20.9z"/>
		</g>
	</g>
</g>
</svg>
