<?xml version="1.0" encoding="utf-8"?>
<!-- Generator: Adobe Illustrator 28.1.0, SVG Export Plug-In . SVG Version: 6.00 Build 0)  -->
<svg version="1.1" id="Layer_1" xmlns="http://www.w3.org/2000/svg" xmlns:xlink="http://www.w3.org/1999/xlink" x="0px" y="0px"
	 viewBox="0 0 403 45.4" style="enable-background:new 0 0 403 45.4;" xml:space="preserve">
<style type="text/css">
	.st0{fill:#FFFFFF;}
</style>
<g>
	<g>
		<g>
			<g>
				<polygon class="st0" points="73.3,15.7 73.3,22.7 57.6,7 57.6,0 				"/>
				<polygon class="st0" points="73.3,22.7 73.3,29.7 57.6,45.4 57.6,38.4 				"/>
			</g>
			<g>
				<polygon class="st0" points="0,29.7 0,22.7 15.7,38.4 15.7,45.4 				"/>
				<polygon class="st0" points="0,22.7 0,15.7 15.7,0 15.7,7 				"/>
			</g>
		</g>
		<path class="st0" d="M54.1,15.6H31.4V6.9h-8.7l-3.5,5.2h7v20.9h3.5v5.2h5.2v-5.2h8.7v5.2h5.2v-5.2h0l5.2-5.2l0,0l0,0l0,0h0
			L54.1,15.6z M48.8,27.8H31.4v-7h17.4V27.8z"/>
	</g>
	<g>
		<g>
			<path class="st0" d="M403,17.4v-2.8c0-0.5-0.2-0.9-0.5-1.2l-5.9-5.9c-0.3-0.3-0.8-0.5-1.2-0.5h-23c-0.5,0-0.9,0.2-1.2,0.5
				l-5.9,5.9c-0.3,0.3-0.5,0.8-0.5,1.2v2c0,0.5,0.2,0.9,0.5,1.2l6.8,6.8c0.3,0.3,0.8,0.5,1.2,0.5l22.8,0c1,0,1.7,0.8,1.7,1.7v4.4
				c0,0.9-0.8,1.7-1.7,1.7l-24.5,0c-1,0-1.7-0.8-1.7-1.7v-3.5l-5.2,0v2.8c0,0.5,0.2,0.9,0.5,1.2l5.9,5.9c0.3,0.3,0.8,0.5,1.2,0.5h23
				c0.5,0,0.9-0.2,1.2-0.5l5.9-5.9c0.3-0.3,0.5-0.8,0.5-1.2v-2c0-0.5-0.2-0.9-0.5-1.2l-6.8-6.8c-0.3-0.3-0.8-0.5-1.2-0.5l-22.8,0
				c-1,0-1.7-0.8-1.7-1.7V14c0-1,0.8-1.7,1.7-1.7H396c1,0,1.7,0.8,1.7,1.7v3.5L403,17.4z"/>
		</g>
		<g>
			<path class="st0" d="M221,10l-2.5-2.5c-0.3-0.3-0.8-0.5-1.2-0.5h-2.5c-0.7,0-1.3,0.4-1.6,1l-11.9,26.9v0c-0.6,1.3-2.5,1.3-3.1,0
				h0v0L186.2,8c-0.3-0.6-0.9-1-1.6-1h-2.5c-0.5,0-0.9,0.2-1.2,0.5l-2.5,2.5c-0.3,0.3-0.5,0.8-0.5,1.2v27.2h5.2V15.8
				c0-0.2,0.2-0.2,0.3-0.1l10.2,22.6h12.2L216,15.7c0.1-0.1,0.3-0.1,0.3,0.1v22.6h5.2V11.2C221.5,10.7,221.4,10.3,221,10z"/>
		</g>
		<g>
			<path class="st0" d="M170.4,13.4l-5.9-5.9c-0.3-0.3-0.8-0.5-1.2-0.5h-23c-0.5,0-0.9,0.2-1.2,0.5l-5.9,5.9
				c-0.3,0.3-0.5,0.8-0.5,1.2v16c0,0.5,0.2,0.9,0.5,1.2l5.9,5.9c0.3,0.3,0.8,0.5,1.2,0.5h23c0.5,0,0.9-0.2,1.2-0.5l5.9-5.9
				c0.3-0.3,0.5-0.8,0.5-1.2v-16C171,14.2,170.8,13.8,170.4,13.4z M164,12.2c1,0,1.7,0.8,1.7,1.7v17.4c0,1-0.8,1.7-1.7,1.7h-24.4
				c-1,0-1.7-0.8-1.7-1.7V14c0-1,0.8-1.7,1.7-1.7H164z"/>
		</g>
		<g>
			<path class="st0" d="M266.4,13.4l-5.9-5.9c-0.3-0.3-0.8-0.5-1.2-0.5h-23c-0.5,0-0.9,0.2-1.2,0.5l-5.9,5.9
				c-0.3,0.3-0.5,0.8-0.5,1.2v23.7h5.2v-7c0-1,0.8-1.7,1.7-1.7l23.7,0c0.5,0,0.9-0.2,1.2-0.5l5.9-5.9c0.3-0.3,0.5-0.8,0.5-1.2v-7.3
				C266.9,14.2,266.7,13.8,266.4,13.4z M260,24.4h-24.5c-1,0-1.7-0.8-1.7-1.7V14c0-1,0.8-1.7,1.7-1.7h24.4c1,0,1.7,0.8,1.7,1.7v8.7
				C261.7,23.6,260.9,24.4,260,24.4z"/>
		</g>
		<g>
			<g>
				<polygon class="st0" points="303.5,29.7 303,29.1 303,29.1 				"/>
				<path class="st0" d="M303.5,27.9h1c0.5,0,0.9-0.2,1.2-0.5l5.9-5.9c0.3-0.3,0.5-0.8,0.5-1.2v-5.5c0-0.5-0.2-0.9-0.5-1.2l-5.9-5.9
					C305.5,7.2,305,7,304.6,7h-23c-0.5,0-0.9,0.2-1.2,0.5l-5.9,5.9c-0.3,0.3-0.5,0.8-0.5,1.2v23.7h5.2v-8.7c0-1,0.8-1.7,1.7-1.7
					l12.2,0c1.1,0,2.2,0.4,2.9,1.2l9.2,9.2h7l-9.2-9.2l0,0C302.6,28.7,302.9,27.9,303.5,27.9z M307,20.9c0,1-0.8,1.7-1.7,1.7h-24.4
					c-1,0-1.7-0.8-1.7-1.7v-7c0-1,0.8-1.7,1.7-1.7h24.4c1,0,1.7,0.8,1.7,1.7V20.9z"/>
			</g>
		</g>
		<g>
			<path class="st0" d="M357.1,13.4l-5.9-5.9c-0.3-0.3-0.8-0.5-1.2-0.5h-23c-0.5,0-0.9,0.2-1.2,0.5l-5.9,5.9
				c-0.3,0.3-0.5,0.8-0.5,1.2v23.7h5.2V27.9h23.7c0.5,0,0.9-0.2,1.2-0.5l1.7-1.7c0.5-0.4,1.2-0.1,1.2,0.5l0,0v12.2h5.2V14.7
				C357.6,14.2,357.4,13.8,357.1,13.4z M328.7,22.7c-0.5,0-0.9,0.2-1.2,0.5l-1.7,1.7c-0.5,0.5-1.2,0.1-1.2-0.5V14
				c0-1,0.8-1.7,1.7-1.7h24.4c1,0,1.7,0.8,1.7,1.7v8.7H328.7z"/>
		</g>
		<g>
			<path class="st0" d="M125.6,17.4v-2.8c0-0.5-0.2-0.9-0.5-1.2l-6-6c-0.3-0.3-0.8-0.5-1.2-0.5h-23c-0.5,0-0.9,0.2-1.2,0.5l-6,6
				c-0.3,0.3-0.5,0.8-0.5,1.2v16c0,0.5,0.2,0.9,0.5,1.2l6,6c0.3,0.3,0.8,0.5,1.2,0.5h23c0.5,0,0.9-0.2,1.2-0.5l6-6
				c0.3-0.3,0.5-0.8,0.5-1.2v-2.8l-5.2,0l0,3.5c0,1-0.8,1.7-1.7,1.7H94.2c-1,0-1.7-0.8-1.7-1.7V14c0-0.9,0.8-1.7,1.7-1.7h24.5
				c0.9,0,1.7,0.8,1.7,1.7v3.5L125.6,17.4z"/>
		</g>
	</g>
</g>
</svg>
