<?xml version="1.0" encoding="UTF-8"?>
<svg id="Camada_2" xmlns="http://www.w3.org/2000/svg" viewBox="0 0 621.9 45.4">
  <defs>
    <style>
      .cls-1 {
        fill: #fff;
      }
    </style>
  </defs>
  <g id="Layer_1">
    <g>
      <g>
        <g>
          <path class="cls-1" d="M621.9,17.4v-2.8c0-.5-.2-.9-.5-1.2l-5.9-5.9c-.3-.3-.8-.5-1.2-.5h-23c-.5,0-.9.2-1.2.5l-5.9,5.9c-.3.3-.5.8-.5,1.2v2c0,.5.2.9.5,1.2l6.8,6.8c.3.3.8.5,1.2.5h22.8c1,0,1.7.8,1.7,1.7v4.4c0,.9-.8,1.7-1.7,1.7h-24.5c-1,0-1.7-.8-1.7-1.7v-3.5h-5.2v2.9c0,.5.2.9.5,1.2l5.9,5.9c.3.3.8.5,1.2.5h23c.5,0,.9-.2,1.2-.5l5.9-5.9c.3-.3.5-.8.5-1.2v-2c0-.5-.2-.9-.5-1.2l-6.8-6.8c-.3-.3-.8-.5-1.2-.5h-22.8c-1,0-1.7-.8-1.7-1.7v-4.4c0-1,.8-1.7,1.7-1.7h24.4c1,0,1.7.8,1.7,1.7v3.5l5.3-.1Z"/>
          <path class="cls-1" d="M440,13.4l-5.9-5.9c-.3-.3-.8-.5-1.2-.5h-23c-.5,0-.9.2-1.2.5l-5.9,5.9c-.3.3-.5.8-.5,1.2v16c0,.5.2.9.5,1.2l5.9,5.9c.3.3.8.5,1.2.5h23c.5,0,.9-.2,1.2-.5l5.9-5.9c.3-.3.5-.8.5-1.2V14.6c0-.4-.2-.9-.5-1.2ZM433.5,12.2c1,0,1.7.8,1.7,1.7v17.4c0,1-.8,1.7-1.7,1.7h-24.4c-1,0-1.7-.8-1.7-1.7V13.9c0-1,.8-1.7,1.7-1.7h24.4Z"/>
          <g>
            <polygon class="cls-1" points="522.5 29.6 522 29.1 522 29.1 522.5 29.6"/>
            <path class="cls-1" d="M522.5,27.9h1c.5,0,.9-.2,1.2-.5l5.9-5.9c.3-.3.5-.8.5-1.2v-5.7c0-.5-.2-.9-.5-1.2l-5.9-5.9c-.3-.3-.8-.5-1.2-.5h-23c-.5,0-.9.2-1.2.5l-5.9,5.9c-.3.3-.5.8-.5,1.2v23.7h5.2v-8.7c0-1,.8-1.7,1.7-1.7h12.2c1.1,0,2.2.4,2.9,1.2l9.2,9.2h7l-9.2-9.2h0c-.4-.5-.1-1.2.6-1.2ZM526,20.9c0,1-.8,1.7-1.7,1.7h-24.4c-1,0-1.7-.8-1.7-1.7v-7c0-1,.8-1.7,1.7-1.7h24.4c1,0,1.7.8,1.7,1.7v7Z"/>
          </g>
          <path class="cls-1" d="M576.1,13.4l-5.9-5.9c-.3-.3-.8-.5-1.2-.5h-23c-.5,0-.9.2-1.2.5l-5.9,5.9c-.3.3-.5.8-.5,1.2v23.7h5.2v-10.4h23.7c.5,0,.9-.2,1.2-.5l1.7-1.7c.5-.4,1.2-.1,1.2.5h0v12.2h5.2V14.6c0-.4-.2-.9-.5-1.2ZM547.6,22.6c-.5,0-.9.2-1.2.5l-1.7,1.7c-.5.5-1.2.1-1.2-.5v-10.4c0-1,.8-1.7,1.7-1.7h24.4c1,0,1.7.8,1.7,1.7v8.7h-23.7Z"/>
          <path class="cls-1" d="M485.3,23.8l-3-3v-6.2c0-.5-.2-.9-.5-1.2l-5.9-5.9c-.3-.3-.8-.5-1.2-.5h-19.5c-.5,0-.9.2-1.2.5l-5.9,5.9c-.3.3-.5.8-.5,1.2v16c0,.5.2.9.5,1.2l5.9,5.9c.3.3.8.5,1.2.5h23c.5,0,.9-.2,1.2-.5l5.9-5.9c.3-.3.5-.8.5-1.2v-5.5c.1-.5-.1-.9-.5-1.3ZM480.6,31.3c0,1-.8,1.7-1.7,1.7h-24.4c-1,0-1.7-.8-1.7-1.7v-4.4c0-1,.8-1.7,1.7-1.7h24.4c1,0,1.7.8,1.7,1.7h0v4.4h0ZM477.1,18.3c0,1-.8,1.7-1.7,1.7h-21c-1,0-1.7-.8-1.7-1.7v-4.4c0-1,.8-1.7,1.7-1.7h20.9c1,0,1.7.8,1.7,1.7h0l.1,4.4h0Z"/>
        </g>
        <g>
          <path class="cls-1" d="M182.6,13.4l-5.9-5.9c-.3-.3-.8-.5-1.2-.5h-13.2l4.8-1.6c.3-.1.5-.2.7-.4L172.7.1l-4.8,1.6c-.3.1-.5.2-.7.4l-3.2,3.2h0c-1,1-2.4,1.6-3.8,1.7h-7.7c-.5,0-.9.2-1.2.5l-5.9,5.9c-.3.3-.5.8-.5,1.2v23.7h5.2v-10.4h23.7c.5,0,.9-.2,1.2-.5l1.7-1.7c.5-.4,1.2-.1,1.2.5h0v12.2h5.2V14.7c0-.5-.2-.9-.5-1.3ZM177.9,22.7h-23.7c-.5,0-.9.2-1.2.5l-1.7,1.7c-.5.5-1.2.1-1.2-.5v-10.4c0-1,.8-1.7,1.7-1.7h24.4c1,0,1.7.8,1.7,1.7v8.7Z"/>
          <path class="cls-1" d="M285.5,13.5l-5.9-5.9c-.3-.3-.8-.5-1.2-.5h-23c-.5,0-.9.2-1.2.5l-5.9,5.9c-.3.3-.5.8-.5,1.2v16c0,.5.2.9.5,1.2l5.9,5.9c.3.3.8.5,1.2.5h23c.5,0,.9-.2,1.2-.5l5.9-5.9c.3-.3.5-.8.5-1.2V14.7c.1-.4-.1-.9-.5-1.2ZM279.1,12.3c1,0,1.7.8,1.7,1.7v17.4c0,1-.8,1.7-1.7,1.7h-24.4c-1,0-1.7-.8-1.7-1.7V14c0-1,.8-1.7,1.7-1.7h24.4Z"/>
          <g>
            <polygon class="cls-1" points="219.8 29.7 219.3 29.2 219.3 29.2 219.8 29.7"/>
            <path class="cls-1" d="M219.8,28h1c.5,0,.9-.2,1.2-.5l5.9-5.9c.3-.3.5-.8.5-1.2v-5.5c0-.5-.2-.9-.5-1.2l-5.9-6.2c-.3-.3-.8-.5-1.2-.5h-23c-.5,0-.9.2-1.2.5l-5.9,5.9c-.3.3-.5.8-.5,1.2v23.7h5.2v-8.7c0-1,.8-1.7,1.7-1.7h12.2c1.1,0,2.2.4,2.9,1.2l9.2,9.2h7l-9.2-9.2h0c-.4-.4-.1-1.1.6-1.1ZM223.3,21c0,1-.8,1.7-1.7,1.7h-24.4c-1,0-1.7-.8-1.7-1.7v-7c0-1,.8-1.7,1.7-1.7h24.4c1,0,1.7.8,1.7,1.7v7Z"/>
          </g>
          <path class="cls-1" d="M125.1,17l-9.4-9.4c-.3-.3-.8-.5-1.2-.5h-19.6c-.5,0-.9.2-1.2.5l-5.9,5.9c-.3.3-.5.8-.5,1.2v16c0,.5.2.9.5,1.2l5.9,5.9c.3.3.8.5,1.2.5h19.5c.5,0,.9-.2,1.2-.5l9.4-9.4c.3-.3.5-.8.5-1.2v-9c.1-.4-.1-.9-.4-1.2ZM94.2,33.2c-1,0-1.7-.8-1.7-1.7V14c0-1,.8-1.7,1.7-1.7h17.7c.5,0,.9.2,1.2.5l6.7,6.7c.3.3.5.8.5,1.2v4.8c0,.5-.2.9-.5,1.2l-5.9,5.9c-.3.3-.8.5-1.2.5l-18.5.1Z"/>
          <path class="cls-1" d="M341.4,17l-9.4-9.4c-.3-.3-.8-.5-1.2-.5h-19.5c-.5,0-.9.2-1.2.5l-5.9,5.9c-.3.3-.5.8-.5,1.2v16c0,.5.2.9.5,1.2l5.9,5.9c.3.3.8.5,1.2.5h19.5c.5,0,.9-.2,1.2-.5l9.4-9.4c.3-.3.5-.8.5-1.2v-9c0-.4-.2-.9-.5-1.2ZM310.5,33.2c-1,0-1.7-.8-1.7-1.7V14c0-1,.8-1.7,1.7-1.7h17.7c.5,0,.9.2,1.2.5l6.7,6.7c.3.3.5.8.5,1.2v4.8c0,.5-.2.9-.5,1.2l-5.9,5.9c-.3.3-.8.5-1.2.5l-18.5.1Z"/>
          <path class="cls-1" d="M355.8,33.2c-1,0-1.7-.8-1.7-1.7v-4.4c0-1,.8-1.7,1.7-1.7h16.7c.5,0,.9-.2,1.2-.5l4.7-4.7h-22.7c-1,0-1.7-.8-1.7-1.7v-4.5c0-1,.8-1.7,1.7-1.7h29.7l-4.7-4.7c-.3-.4-.7-.6-1.2-.6h-23c-.5,0-.9.2-1.2.5l-5.9,5.9c-.3.3-.5.8-.5,1.2v16c0,.5.2.9.5,1.2l5.9,5.9c.3.3.8.5,1.2.5h23c.5,0,.9-.2,1.2-.5l4.7-4.7-29.6.2h0Z"/>
          <path class="cls-1" d="M132.6,0v2.8c0,.5.2.9.5,1.2l1.2,1.2c1,1,1,2.5,0,3.5l-1.2,1.2c-.3.3-.5.8-.5,1.2v27.2h5.2V0h-5.2Z"/>
          <path class="cls-1" d="M235.5,0v2.8c0,.5.2.9.5,1.2l1.2,1.2c1,1,1,2.5,0,3.5l-1.2,1.3c-.3.3-.5.8-.5,1.2v27.2h5.2V0h-5.2Z"/>
        </g>
      </g>
      <g>
        <g>
          <polygon class="cls-1" points="54.1 9.6 54.1 16.6 43.6 27.1 33.1 30.5 54.1 9.6"/>
          <polygon class="cls-1" points="33.1 30.5 27.9 35.8 19.2 35.8 19.2 30.5 33.1 30.5"/>
          <polygon class="cls-1" points="38.4 20.1 33.1 25.3 19.2 25.3 19.2 20.1 38.4 20.1"/>
          <polygon class="cls-1" points="48.8 9.6 43.6 14.8 19.2 14.8 19.2 9.6 48.8 9.6"/>
        </g>
        <g>
          <g>
            <polygon class="cls-1" points="73.3 15.7 73.3 22.7 57.6 7 57.6 0 73.3 15.7"/>
            <polygon class="cls-1" points="73.3 22.7 73.3 29.7 57.6 45.4 57.6 38.4 73.3 22.7"/>
          </g>
          <g>
            <polygon class="cls-1" points="0 29.7 0 22.7 15.7 38.4 15.7 45.4 0 29.7"/>
            <polygon class="cls-1" points="0 22.7 0 15.7 15.7 0 15.7 7 0 22.7"/>
          </g>
        </g>
      </g>
    </g>
  </g>
</svg>