<?xml version="1.0" encoding="utf-8"?>
<!-- Generator: Adobe Illustrator 28.1.0, SVG Export Plug-In . SVG Version: 6.00 Build 0)  -->
<svg version="1.1" id="Layer_1" xmlns="http://www.w3.org/2000/svg" xmlns:xlink="http://www.w3.org/1999/xlink" x="0px" y="0px"
	 viewBox="0 0 483.2 45.4" style="enable-background:new 0 0 483.2 45.4;" xml:space="preserve">
<style type="text/css">
	.st0{fill:#FFFFFF;}
</style>
<g>
	<g>
		<g>
			<path class="st0" d="M333.7,7.5c-0.3-0.3-0.8-0.5-1.2-0.5h-29.9c-0.5,0-0.9,0.2-1.2,0.5l-4.7,4.7h16.6c1,0,1.7,0.8,1.7,1.7v24.4
				h5.2V14c0-1,0.8-1.7,1.7-1.7h16.6L333.7,7.5z"/>
		</g>
		<g>
			<path class="st0" d="M263.4,33.1c-1,0-1.7-0.8-1.7-1.7V27c0-1,0.8-1.7,1.7-1.7l0,0h16.7c0.5,0,0.9-0.2,1.2-0.5l4.7-4.7h-22.7
				c-1,0-1.7-0.8-1.7-1.7V14c0-1,0.8-1.7,1.7-1.7h29.7l-4.7-4.7C288,7.2,287.6,7,287.1,7h-15l0,0l4.8-1.6c0.3-0.1,0.5-0.2,0.7-0.4
				l4.9-4.9l-4.8,1.6c-0.3,0.1-0.5,0.2-0.7,0.4l-3.2,3.2l0,0c-1.1,1.1-2.6,1.7-4.2,1.7l0,0h-5.5c-0.5,0-0.9,0.2-1.2,0.5l-5.9,5.9
				c-0.3,0.3-0.5,0.8-0.5,1.2v16c0,0.5,0.2,0.9,0.5,1.2l5.9,5.9c0.3,0.3,0.8,0.5,1.2,0.5h23c0.5,0,0.9-0.2,1.2-0.5l4.7-4.7
				L263.4,33.1L263.4,33.1z"/>
		</g>
		<g>
			<path class="st0" d="M226.8,33.2c-1,0-1.7-0.8-1.7-1.7V7h-5.2v23.7c0,0.5,0.2,0.9,0.5,1.2l5.9,5.9c0.3,0.3,0.8,0.5,1.2,0.5
				l19.5,0c0.5,0,0.9-0.2,1.2-0.5l4.7-4.7H226.8z"/>
		</g>
		<g>
			<path class="st0" d="M125.1,13.5l-5.9-5.9c-0.3-0.3-0.8-0.5-1.2-0.5h-23c-0.5,0-0.9,0.2-1.2,0.5l-5.9,5.9
				c-0.3,0.3-0.5,0.8-0.5,1.2v16c0,0.5,0.2,0.9,0.5,1.2l5.9,5.9c0.3,0.3,0.8,0.5,1.2,0.5h23c0.5,0,0.9-0.2,1.2-0.5l5.9-5.9
				c0.3-0.3,0.5-0.8,0.5-1.2v-16C125.6,14.2,125.4,13.8,125.1,13.5z M118.6,12.2c1,0,1.7,0.8,1.7,1.7v17.4c0,1-0.8,1.7-1.7,1.7H94.2
				c-1,0-1.7-0.8-1.7-1.7V14c0-1,0.8-1.7,1.7-1.7H118.6z"/>
		</g>
		<g>
			<path class="st0" d="M482.7,13.5l-5.9-5.9C476.4,7.2,476,7,475.5,7h-23c-0.5,0-0.9,0.2-1.2,0.5l-5.9,5.9
				c-0.3,0.3-0.5,0.8-0.5,1.2v16c0,0.5,0.2,0.9,0.5,1.2l5.9,5.9c0.3,0.3,0.8,0.5,1.2,0.5h23c0.5,0,0.9-0.2,1.2-0.5l5.9-5.9
				c0.3-0.3,0.5-0.8,0.5-1.2v-16C483.2,14.2,483,13.8,482.7,13.5z M476.2,12.2c1,0,1.7,0.8,1.7,1.7v17.4c0,1-0.8,1.7-1.7,1.7h-24.4
				c-1,0-1.7-0.8-1.7-1.7V14c0-1,0.8-1.7,1.7-1.7H476.2z"/>
		</g>
		<g>
			<g>
				<polygon class="st0" points="371.6,29.7 371.1,29.2 371.1,29.2 				"/>
				<path class="st0" d="M371.6,27.9h1c0.5,0,0.9-0.2,1.2-0.5l5.9-5.9c0.3-0.3,0.5-0.8,0.5-1.2v-5.5c0-0.5-0.2-0.9-0.5-1.2l-5.9-5.9
					C373.5,7.2,373,7,372.6,7h-23c-0.5,0-0.9,0.2-1.2,0.5l-5.9,5.9c-0.3,0.3-0.5,0.8-0.5,1.2v23.7h5.2v-8.7c0-1,0.8-1.7,1.7-1.7
					l12.2,0c1.1,0,2.2,0.4,2.9,1.2l9.2,9.2h7l-9.2-9.2l0,0C370.6,28.7,370.9,28,371.6,27.9z M375.1,21c0,1-0.8,1.7-1.7,1.7h-24.4
					c-1,0-1.7-0.8-1.7-1.7v-7c0-1,0.8-1.7,1.7-1.7h24.4c1,0,1.7,0.8,1.7,1.7V21z"/>
			</g>
		</g>
		<g>
			<path class="st0" d="M437.8,17.5v-2.8c0-0.5-0.2-0.9-0.5-1.2l-6-6C431,7.2,430.6,7,430.1,7h-23c-0.5,0-0.9,0.2-1.2,0.5l-6,6
				c-0.3,0.3-0.5,0.8-0.5,1.2v16c0,0.5,0.2,0.9,0.5,1.2l6,6c0.3,0.3,0.8,0.5,1.2,0.5h23c0.5,0,0.9-0.2,1.2-0.5l6-6
				c0.3-0.3,0.5-0.8,0.5-1.2v-2.8l-5.2,0l0,3.5c0,1-0.8,1.7-1.7,1.7h-24.4c-1,0-1.7-0.8-1.7-1.7V14c0-0.9,0.8-1.7,1.7-1.7h24.5
				c0.9,0,1.7,0.8,1.7,1.7v3.5L437.8,17.5z"/>
		</g>
		<g>
			<path class="st0" d="M186.7,33.2c-1,0-1.7-0.8-1.7-1.7v-4.4c0-1,0.8-1.7,1.7-1.7l0,0h16.7c0.5,0,0.9-0.2,1.2-0.5l4.7-4.7h-22.7
				c-1,0-1.7-0.8-1.7-1.7V14c0-1,0.8-1.7,1.7-1.7h29.7l-4.7-4.7c-0.3-0.3-0.8-0.5-1.2-0.5h-23c-0.5,0-0.9,0.2-1.2,0.5l-5.9,5.9
				c-0.3,0.3-0.5,0.8-0.5,1.2v16c0,0.5,0.2,0.9,0.5,1.2l5.9,5.9c0.3,0.3,0.8,0.5,1.2,0.5h23c0.5,0,0.9-0.2,1.2-0.5l4.7-4.7
				L186.7,33.2L186.7,33.2z"/>
		</g>
		<g>
			<path class="st0" d="M387.3,0v2.8c0,0.5,0.2,0.9,0.5,1.2l1.2,1.2c1,1,1,2.5,0,3.5l-1.2,1.2c-0.3,0.3-0.5,0.8-0.5,1.2v27.2h5.2V0
				H387.3z"/>
		</g>
		<g>
			<path class="st0" d="M137.8,21v-7c0-1,0.8-1.7,1.7-1.7h29.7l-4.7-4.7c-0.3-0.3-0.8-0.5-1.2-0.5h-23c-0.5,0-0.9,0.2-1.2,0.5
				l-5.9,5.9c-0.3,0.3-0.5,0.8-0.5,1.2v23.7h5.2v-8.7c0-1,0.8-1.7,1.7-1.7l16.7,0c0.5,0,0.9-0.2,1.2-0.5l4.7-4.7h-22.7
				C138.6,22.7,137.8,21.9,137.8,21z"/>
		</g>
	</g>
	<g>
		<polygon class="st0" points="32.3,20.4 45.4,7.3 38.4,7.3 20.1,25.6 41,25.6 27.9,38.7 34.9,38.7 53.2,20.4 		"/>
		<g>
			<g>
				<polygon class="st0" points="73.3,15.7 73.3,22.7 57.6,7 57.6,0 				"/>
				<polygon class="st0" points="73.3,22.7 73.3,29.7 57.6,45.4 57.6,38.4 				"/>
			</g>
			<g>
				<polygon class="st0" points="0,29.7 0,22.7 15.7,38.4 15.7,45.4 				"/>
				<polygon class="st0" points="0,22.7 0,15.7 15.7,0 15.7,7 				"/>
			</g>
		</g>
	</g>
</g>
</svg>
