<?xml version="1.0" encoding="utf-8"?>
<!-- Generator: Adobe Illustrator 28.1.0, SVG Export Plug-In . SVG Version: 6.00 Build 0)  -->
<svg version="1.1" id="Layer_1" xmlns="http://www.w3.org/2000/svg" xmlns:xlink="http://www.w3.org/1999/xlink" x="0px" y="0px"
	 viewBox="0 0 612.2 45.4" style="enable-background:new 0 0 612.2 45.4;" xml:space="preserve">
<style type="text/css">
	.st0{fill:#FFFFFF;}
</style>
<g>
	<g>
		<g>
			<g>
				<polygon class="st0" points="73.3,15.7 73.3,22.7 57.6,7 57.6,0 				"/>
				<polygon class="st0" points="73.3,22.7 73.3,29.7 57.6,45.4 57.6,38.4 				"/>
			</g>
			<g>
				<polygon class="st0" points="0,29.7 0,22.7 15.7,38.4 15.7,45.4 				"/>
				<polygon class="st0" points="0,22.7 0,15.7 15.7,0 15.7,7 				"/>
			</g>
		</g>
		<g>
			
				<rect x="34" y="7" transform="matrix(-1.836970e-16 1 -1 -1.836970e-16 59.3102 -13.955)" class="st0" width="5.2" height="31.4"/>
			
				<rect x="34" y="-3.5" transform="matrix(-1.836970e-16 1 -1 -1.836970e-16 48.8449 -24.4204)" class="st0" width="5.2" height="31.4"/>
			
				<rect x="34" y="17.4" transform="matrix(-1.836970e-16 1 -1 -1.836970e-16 69.7759 -3.4893)" class="st0" width="5.2" height="31.4"/>
		</g>
	</g>
	<g>
		<g>
			<path class="st0" d="M125.1,13.5l-5.9-5.9c-0.3-0.3-0.8-0.5-1.2-0.5h-23c-0.5,0-0.9,0.2-1.2,0.5l-5.9,5.9
				c-0.3,0.3-0.5,0.8-0.5,1.2v16c0,0.5,0.2,0.9,0.5,1.2l5.9,5.9c0.3,0.3,0.8,0.5,1.2,0.5h23c0.5,0,0.9-0.2,1.2-0.5l5.9-5.9
				c0.3-0.3,0.5-0.8,0.5-1.2v-16C125.6,14.2,125.4,13.8,125.1,13.5z M118.6,12.2c1,0,1.7,0.8,1.7,1.7v17.4c0,1-0.8,1.7-1.7,1.7H94.2
				c-1,0-1.7-0.8-1.7-1.7V14c0-1,0.8-1.7,1.7-1.7H118.6z"/>
		</g>
		<g>
			<path class="st0" d="M137.8,21v-7c0-1,0.8-1.7,1.7-1.7h29.7l-4.7-4.7c-0.3-0.3-0.8-0.5-1.2-0.5h-23c-0.5,0-0.9,0.2-1.2,0.5
				l-5.9,5.9c-0.3,0.3-0.5,0.8-0.5,1.2v23.7h5.2v-8.7c0-1,0.8-1.7,1.7-1.7l16.7,0c0.5,0,0.9-0.2,1.2-0.5l4.7-4.7h-22.7
				C138.6,22.7,137.8,21.9,137.8,21z"/>
		</g>
		<g>
			<g>
				<path class="st0" d="M261.6,17.5v-2.8c0-0.5-0.2-0.9-0.5-1.2l-5.9-5.9c-0.3-0.3-0.8-0.5-1.2-0.5h-23c-0.5,0-0.9,0.2-1.2,0.5
					l-5.9,5.9c-0.3,0.3-0.5,0.8-0.5,1.2v2c0,0.5,0.2,0.9,0.5,1.2l6.8,6.8c0.3,0.3,0.8,0.5,1.2,0.5l22.8,0c1,0,1.7,0.8,1.7,1.7v4.4
					c0,0.9-0.8,1.7-1.7,1.7l-24.5,0c-1,0-1.7-0.8-1.7-1.7v-3.5l-5.2,0v2.8c0,0.5,0.2,0.9,0.5,1.2l5.9,5.9c0.3,0.3,0.8,0.5,1.2,0.5
					h23c0.5,0,0.9-0.2,1.2-0.5l5.9-5.9c0.3-0.3,0.5-0.8,0.5-1.2v-2c0-0.5-0.2-0.9-0.5-1.2l-6.8-6.8c-0.3-0.3-0.8-0.5-1.2-0.5
					l-22.8,0c-1,0-1.7-0.8-1.7-1.7V14c0-1,0.8-1.7,1.7-1.7h24.4c1,0,1.7,0.8,1.7,1.7v3.5L261.6,17.5z"/>
			</g>
			<g>
				<path class="st0" d="M302.3,7.5C301.9,7.2,301.5,7,301,7h-29.9c-0.5,0-0.9,0.2-1.2,0.5l-4.7,4.7h16.6c1,0,1.7,0.8,1.7,1.7v24.4
					h5.2V14c0-1,0.8-1.7,1.7-1.7H307L302.3,7.5z"/>
			</g>
			<g>
				<path class="st0" d="M434.8,7.5C434.5,7.2,434,7,433.6,7h-29.9c-0.5,0-0.9,0.2-1.2,0.5l-4.7,4.7h16.6c1,0,1.7,0.8,1.7,1.7v24.4
					h5.2V14c0-1,0.8-1.7,1.7-1.7h16.6L434.8,7.5z"/>
			</g>
			<g>
				<path class="st0" d="M389,7v24.4c0,1-0.8,1.7-1.7,1.7h-24.4c-1,0-1.7-0.8-1.7-1.7V7l-5.2,0v23.7c0,0.5,0.2,0.9,0.5,1.2l5.9,5.9
					c0.3,0.3,0.8,0.5,1.2,0.5h23c0.5,0,0.9-0.2,1.2-0.5l5.9-5.9c0.3-0.3,0.5-0.8,0.5-1.2V7L389,7z"/>
			</g>
			<g>
				<path class="st0" d="M476.2,7v24.4c0,1-0.8,1.7-1.7,1.7H450c-1,0-1.7-0.8-1.7-1.7V7L443,7v23.7c0,0.5,0.2,0.9,0.5,1.2l5.9,5.9
					c0.3,0.3,0.8,0.5,1.2,0.5h23c0.5,0,0.9-0.2,1.2-0.5l5.9-5.9c0.3-0.3,0.5-0.8,0.5-1.2V7L476.2,7z"/>
			</g>
			<g>
				<path class="st0" d="M586,33.2c-1,0-1.7-0.8-1.7-1.7V7h-5.2v23.7c0,0.5,0.2,0.9,0.5,1.2l5.9,5.9c0.3,0.3,0.8,0.5,1.2,0.5l19.5,0
					c0.5,0,0.9-0.2,1.2-0.5l4.7-4.7H586z"/>
			</g>
			<g>
				<g>
					<polygon class="st0" points="340.1,29.7 339.6,29.2 339.6,29.2 					"/>
					<path class="st0" d="M340.1,27.9h1c0.5,0,0.9-0.2,1.2-0.5l5.9-5.9c0.3-0.3,0.5-0.8,0.5-1.2v-5.5c0-0.5-0.2-0.9-0.5-1.2
						l-5.9-5.9c-0.3-0.3-0.8-0.5-1.2-0.5h-23c-0.5,0-0.9,0.2-1.2,0.5l-5.9,5.9c-0.3,0.3-0.5,0.8-0.5,1.2v23.7h5.2v-8.7
						c0-1,0.8-1.7,1.7-1.7l12.2,0c1.1,0,2.2,0.4,2.9,1.2l9.2,9.2h7l-9.2-9.2l0,0C339.2,28.7,339.5,27.9,340.1,27.9z M343.6,21
						c0,1-0.8,1.7-1.7,1.7h-24.4c-1,0-1.7-0.8-1.7-1.7v-7c0-1,0.8-1.7,1.7-1.7h24.4c1,0,1.7,0.8,1.7,1.7V21z"/>
				</g>
			</g>
			<g>
				<g>
					<polygon class="st0" points="518,29.7 517.5,29.2 517.5,29.2 					"/>
					<path class="st0" d="M518,27.9h1c0.5,0,0.9-0.2,1.2-0.5l5.9-5.9c0.3-0.3,0.5-0.8,0.5-1.2v-5.5c0-0.5-0.2-0.9-0.5-1.2l-5.9-5.9
						C519.9,7.2,519.5,7,519,7h-23c-0.5,0-0.9,0.2-1.2,0.5l-5.9,5.9c-0.3,0.3-0.5,0.8-0.5,1.2v23.7h5.2v-8.7c0-1,0.8-1.7,1.7-1.7
						l12.2,0c1.1,0,2.2,0.4,2.9,1.2l9.2,9.2h7l-9.2-9.2l0,0C517.1,28.7,517.4,27.9,518,27.9z M521.5,21c0,1-0.8,1.7-1.7,1.7h-24.4
						c-1,0-1.7-0.8-1.7-1.7v-7c0-1,0.8-1.7,1.7-1.7h24.4c1,0,1.7,0.8,1.7,1.7V21z"/>
				</g>
			</g>
			<g>
				<path class="st0" d="M571.6,13.5l-5.9-5.9c-0.3-0.3-0.8-0.5-1.2-0.5h-23c-0.5,0-0.9,0.2-1.2,0.5l-5.9,5.9
					c-0.3,0.3-0.5,0.8-0.5,1.2v23.7h5.2V27.9h23.7c0.5,0,0.9-0.2,1.2-0.5l1.7-1.7c0.5-0.4,1.2-0.1,1.2,0.5l0,0v12.2h5.2V14.7
					C572.1,14.2,571.9,13.8,571.6,13.5z M543.2,22.7c-0.5,0-0.9,0.2-1.2,0.5l-1.7,1.7c-0.5,0.5-1.2,0.1-1.2-0.5V14
					c0-1,0.8-1.7,1.7-1.7h24.4c1,0,1.7,0.8,1.7,1.7v8.7H543.2z"/>
			</g>
			<g>
				<path class="st0" d="M186.7,33.2c-1,0-1.7-0.8-1.7-1.7v-4.4c0-1,0.8-1.7,1.7-1.7l0,0h16.7c0.5,0,0.9-0.2,1.2-0.5l4.7-4.7h-22.7
					c-1,0-1.7-0.8-1.7-1.7V14c0-1,0.8-1.7,1.7-1.7h29.6l-4.7-4.7c-0.3-0.3-0.8-0.5-1.2-0.5h-23c-0.5,0-0.9,0.2-1.2,0.5l-5.9,5.9
					c-0.3,0.3-0.5,0.8-0.5,1.2v16c0,0.5,0.2,0.9,0.5,1.2l5.9,5.9c0.3,0.3,0.8,0.5,1.2,0.5h23c0.5,0,0.9-0.2,1.2-0.5l4.7-4.7
					L186.7,33.2L186.7,33.2z"/>
			</g>
		</g>
	</g>
</g>
</svg>
