<?xml version="1.0" encoding="utf-8"?>
<!-- Generator: Adobe Illustrator 28.1.0, SVG Export Plug-In . SVG Version: 6.00 Build 0)  -->
<svg version="1.1" id="Layer_1" xmlns="http://www.w3.org/2000/svg" xmlns:xlink="http://www.w3.org/1999/xlink" x="0px" y="0px"
	 viewBox="0 0 551.2 45.4" style="enable-background:new 0 0 551.2 45.4;" xml:space="preserve">
<style type="text/css">
	.st0{fill:#FFFFFF;}
</style>
<g>
	<g>
		<g>
			<path class="st0" d="M406.4,7v24.4c0,1-0.8,1.7-1.7,1.7h-24.4c-1,0-1.7-0.8-1.7-1.7V7l-5.2,0v23.7c0,0.5,0.2,0.9,0.5,1.2l5.9,5.9
				c0.3,0.3,0.8,0.5,1.2,0.5h23c0.5,0,0.9-0.2,1.2-0.5l5.9-5.9c0.3-0.3,0.5-0.8,0.5-1.2V7L406.4,7z"/>
		</g>
		<g>
			<path class="st0" d="M365.8,13.4l-5.9-5.9C359.5,7.1,359,7,358.6,7h-13.2l4.8-1.6c0.3-0.1,0.5-0.2,0.7-0.4l4.9-4.9L351,1.6
				c-0.3,0.1-0.5,0.2-0.7,0.4l-3.2,3.2l0,0c-1,1-2.4,1.6-3.8,1.7h-7.7c-0.5,0-0.9,0.2-1.2,0.5l-5.9,5.9c-0.3,0.3-0.5,0.8-0.5,1.2
				v23.7h5.2V27.9h23.7c0.5,0,0.9-0.2,1.2-0.5l1.7-1.7c0.5-0.4,1.2-0.1,1.2,0.5l0,0v12.2h5.2V14.7C366.3,14.2,366.1,13.8,365.8,13.4
				z M361,22.7h-23.7c-0.5,0-0.9,0.2-1.2,0.5l-1.7,1.7c-0.5,0.5-1.2,0.1-1.2-0.5V13.9c0-1,0.8-1.7,1.7-1.7h24.4c1,0,1.7,0.8,1.7,1.7
				V22.7z"/>
		</g>
		<g>
			<path class="st0" d="M425.6,33.2c-1,0-1.7-0.8-1.7-1.7V7h-5.2v23.7c0,0.5,0.2,0.9,0.5,1.2l5.9,5.9c0.3,0.3,0.8,0.5,1.2,0.5
				l19.5,0c0.5,0,0.9-0.2,1.2-0.5l4.7-4.7H425.6z"/>
		</g>
		<g>
			<path class="st0" d="M125.1,13.5l-5.9-5.9c-0.3-0.3-0.8-0.5-1.2-0.5h-23c-0.5,0-0.9,0.2-1.2,0.5l-5.9,5.9
				c-0.3,0.3-0.5,0.8-0.5,1.2v16c0,0.5,0.2,0.9,0.5,1.2l5.9,5.9c0.3,0.3,0.8,0.5,1.2,0.5h23c0.5,0,0.9-0.2,1.2-0.5l5.9-5.9
				c0.3-0.3,0.5-0.8,0.5-1.2v-16C125.6,14.2,125.4,13.8,125.1,13.5z M118.6,12.2c1,0,1.7,0.8,1.7,1.7v17.4c0,1-0.8,1.7-1.7,1.7H94.2
				c-1,0-1.7-0.8-1.7-1.7V14c0-1,0.8-1.7,1.7-1.7H118.6z"/>
		</g>
		<g>
			<path class="st0" d="M550.7,13.5l-5.9-5.9C544.4,7.2,544,7,543.5,7h-23c-0.5,0-0.9,0.2-1.2,0.5l-5.9,5.9
				c-0.3,0.3-0.5,0.8-0.5,1.2v16c0,0.5,0.2,0.9,0.5,1.2l5.9,5.9c0.3,0.3,0.8,0.5,1.2,0.5h23c0.5,0,0.9-0.2,1.2-0.5l5.9-5.9
				c0.3-0.3,0.5-0.8,0.5-1.2v-16C551.2,14.2,551,13.8,550.7,13.5z M544.2,12.2c1,0,1.7,0.8,1.7,1.7v17.4c0,1-0.8,1.7-1.7,1.7h-24.4
				c-1,0-1.7-0.8-1.7-1.7V14c0-1,0.8-1.7,1.7-1.7H544.2z"/>
		</g>
		<g>
			<g>
				<polygon class="st0" points="312.2,29.7 311.7,29.2 311.7,29.2 				"/>
				<path class="st0" d="M312.2,27.9h1c0.5,0,0.9-0.2,1.2-0.5l5.9-5.9c0.3-0.3,0.5-0.8,0.5-1.2v-5.5c0-0.5-0.2-0.9-0.5-1.2l-5.9-5.9
					c-0.3-0.3-0.8-0.5-1.2-0.5h-23c-0.5,0-0.9,0.2-1.2,0.5l-5.9,5.9c-0.3,0.3-0.5,0.8-0.5,1.2v23.7h5.2v-8.7c0-1,0.8-1.7,1.7-1.7
					l12.2,0c1.1,0,2.2,0.4,2.9,1.2l9.2,9.2h7l-9.2-9.2l0,0C311.3,28.7,311.6,28,312.2,27.9z M315.7,21c0,1-0.8,1.7-1.7,1.7h-24.4
					c-1,0-1.7-0.8-1.7-1.7v-7c0-1,0.8-1.7,1.7-1.7H314c1,0,1.7,0.8,1.7,1.7V21z"/>
			</g>
		</g>
		<g>
			<path class="st0" d="M505.8,17.5v-2.8c0-0.5-0.2-0.9-0.5-1.2l-6-6c-0.3-0.3-0.8-0.5-1.2-0.5h-23c-0.5,0-0.9,0.2-1.2,0.5l-6,6
				c-0.3,0.3-0.5,0.8-0.5,1.2v16c0,0.5,0.2,0.9,0.5,1.2l6,6c0.3,0.3,0.8,0.5,1.2,0.5h23c0.5,0,0.9-0.2,1.2-0.5l6-6
				c0.3-0.3,0.5-0.8,0.5-1.2v-2.8l-5.2,0l0,3.5c0,1-0.8,1.7-1.7,1.7h-24.4c-1,0-1.7-0.8-1.7-1.7V14c0-0.9,0.8-1.7,1.7-1.7h24.5
				c0.9,0,1.7,0.8,1.7,1.7v3.5L505.8,17.5z"/>
		</g>
		<g>
			<path class="st0" d="M275.1,17l-9.4-9.4c-0.3-0.3-0.8-0.5-1.2-0.5h-19.5c-0.5,0-0.9,0.2-1.2,0.5l-5.9,5.9
				c-0.3,0.3-0.5,0.8-0.5,1.2v16c0,0.5,0.2,0.9,0.5,1.2l5.9,5.9c0.3,0.3,0.8,0.5,1.2,0.5h19.5c0.5,0,0.9-0.2,1.2-0.5l9.4-9.4
				c0.3-0.3,0.5-0.8,0.5-1.2l0-9C275.6,17.7,275.4,17.3,275.1,17z M244.2,33.2c-1,0-1.7-0.8-1.7-1.7V14c0-1,0.8-1.7,1.7-1.7h17.7
				c0.5,0,0.9,0.2,1.2,0.5l6.7,6.7c0.3,0.3,0.5,0.8,0.5,1.2v4.8c0,0.5-0.2,0.9-0.5,1.2l-5.9,5.9c-0.3,0.3-0.8,0.5-1.2,0.5
				L244.2,33.2z"/>
		</g>
		<g>
			<path class="st0" d="M212.8,7v14l-23.7,0c-0.5,0-0.9,0.2-1.2,0.5l-1.7,1.7c-0.5,0.5-1.2,0.1-1.2-0.5l0-15.7h-5.2v31.4h5.2V26.2
				l23.7,0c0.5,0,0.9-0.2,1.2-0.5l1.7-1.7c0.5-0.4,1.2-0.1,1.2,0.5l0,14h5.2V7H212.8z"/>
		</g>
		<g>
			<path class="st0" d="M225,0v2.8c0,0.5,0.2,0.9,0.5,1.2l1.2,1.2c1,1,1,2.5,0,3.5l-1.2,1.2c-0.3,0.3-0.5,0.8-0.5,1.2v27.2h5.2V0
				H225z"/>
		</g>
		<g>
			<path class="st0" d="M455.3,0v2.8c0,0.5,0.2,0.9,0.5,1.2l1.2,1.2c1,1,1,2.5,0,3.5l-1.2,1.2c-0.3,0.3-0.5,0.8-0.5,1.2v27.2h5.2V0
				H455.3z"/>
		</g>
		<g>
			<path class="st0" d="M137.8,21v-7c0-1,0.8-1.7,1.7-1.7h29.7l-4.7-4.7c-0.3-0.3-0.8-0.5-1.2-0.5h-23c-0.5,0-0.9,0.2-1.2,0.5
				l-5.9,5.9c-0.3,0.3-0.5,0.8-0.5,1.2v23.7h5.2v-8.7c0-1,0.8-1.7,1.7-1.7l16.7,0c0.5,0,0.9-0.2,1.2-0.5l4.7-4.7h-22.7
				C138.6,22.7,137.8,21.9,137.8,21z"/>
		</g>
	</g>
	<g>
		<g>
			<polygon class="st0" points="19.3,28.2 19.3,33.5 31.4,33.5 36.6,28.2 			"/>
			<polygon class="st0" points="36.6,28.2 54.1,28.2 54.1,23 41.9,23 			"/>
			<polygon class="st0" points="36.6,17.8 19.3,17.8 19.3,23 31.4,23 			"/>
			<polygon class="st0" points="41.9,12.5 36.6,17.8 54.1,17.8 54.1,12.5 			"/>
		</g>
		<g>
			<g>
				<polygon class="st0" points="73.3,15.7 73.3,22.7 57.6,7 57.6,0 				"/>
				<polygon class="st0" points="73.3,22.7 73.3,29.7 57.6,45.4 57.6,38.4 				"/>
			</g>
			<g>
				<polygon class="st0" points="0,29.7 0,22.7 15.7,38.4 15.7,45.4 				"/>
				<polygon class="st0" points="0,22.7 0,15.7 15.7,0 15.7,7 				"/>
			</g>
		</g>
	</g>
</g>
</svg>
