<?xml version="1.0" encoding="UTF-8"?>
<svg id="Camada_2" xmlns="http://www.w3.org/2000/svg" viewBox="0 0 696.55 45.4">
  <defs>
    <style>
      .cls-1 {
        fill: #fff;
      }
    </style>
  </defs>
  <g id="Layer_1">
    <g>
      <g>
        <g>
          <path class="cls-1" d="M696.55,17.25v-2.8c0-.5-.2-.9-.5-1.2l-5.9-5.9c-.3-.3-.8-.5-1.2-.5h-23c-.5,0-.9.2-1.2.5l-5.9,5.9c-.3.3-.5.8-.5,1.2v2c0,.5.2.9.5,1.2l6.8,6.8c.3.3.8.5,1.2.5h22.8c1,0,1.7.8,1.7,1.7v4.4c0,.9-.8,1.7-1.7,1.7h-24.5c-1,0-1.7-.8-1.7-1.7v-3.5h-5.2v2.9c0,.5.2.9.5,1.2l5.9,5.9c.3.3.8.5,1.2.5h23c.5,0,.9-.2,1.2-.5l5.9-5.9c.3-.3.5-.8.5-1.2v-2c0-.5-.2-.9-.5-1.2l-6.8-6.8c-.3-.3-.8-.5-1.2-.5h-22.8c-1,0-1.7-.8-1.7-1.7v-4.4c0-1,.8-1.7,1.7-1.7h24.4c1,0,1.7.8,1.7,1.7v3.5l5.3-.1Z"/>
          <path class="cls-1" d="M514.55,13.25l-5.9-5.9c-.3-.3-.8-.5-1.2-.5h-23c-.5,0-.9.2-1.2.5l-5.9,5.9c-.3.3-.5.8-.5,1.2v16c0,.5.2.9.5,1.2l5.9,5.9c.3.3.8.5,1.2.5h23c.5,0,.9-.2,1.2-.5l5.9-5.9c.3-.3.5-.8.5-1.2V14.45c0-.4-.1-.9-.5-1.2ZM508.15,12.05c1,0,1.7.8,1.7,1.7v17.4c0,1-.8,1.7-1.7,1.7h-24.4c-1,0-1.7-.8-1.7-1.7V13.75c0-1,.8-1.7,1.7-1.7h24.4Z"/>
          <g>
            <polygon class="cls-1" points="597.05 29.45 596.55 28.95 596.55 28.95 597.05 29.45"/>
            <path class="cls-1" d="M597.05,27.75h1c.5,0,.9-.2,1.2-.5l5.9-5.9c.3-.3.5-.8.5-1.2v-5.5c0-.5-.2-.9-.5-1.2l-5.9-5.9c-.3-.3-.8-.5-1.2-.5h-23c-.5,0-.9.2-1.2.5l-5.9,5.9c-.3.3-.5.8-.5,1.2v23.7h5.2v-8.9c0-1,.8-1.7,1.7-1.7h12.2c1.1,0,2.2.4,2.9,1.2l9.2,9.2h7l-9.2-9.2h0c-.3-.4,0-1.2.6-1.2ZM600.55,20.75c0,1-.8,1.7-1.7,1.7h-24.4c-1,0-1.7-.8-1.7-1.7v-7c0-1,.8-1.7,1.7-1.7h24.4c1,0,1.7.8,1.7,1.7v7Z"/>
          </g>
          <path class="cls-1" d="M650.65,13.25l-5.9-5.9c-.3-.3-.8-.5-1.2-.5h-23c-.5,0-.9.2-1.2.5l-5.9,5.9c-.3.3-.5.8-.5,1.2v23.7h5.2v-10.4h23.7c.5,0,.9-.2,1.2-.5l1.7-1.7c.5-.4,1.2-.1,1.2.5h0v12.2h5.2V14.55c0-.5-.2-1-.5-1.3ZM622.25,22.45c-.5,0-.9.2-1.2.5l-1.7,1.7c-.5.5-1.2.1-1.2-.5v-10.4c0-1,.8-1.7,1.7-1.7h24.4c1,0,1.7.8,1.7,1.7v8.7h-23.7Z"/>
          <path class="cls-1" d="M559.95,23.75l-3-3v-6.2c0-.5-.2-.9-.5-1.2l-5.9-5.9c-.3-.3-.8-.5-1.2-.5h-19.5c-.5,0-.9.2-1.2.5l-5.9,5.9c-.3.3-.5.8-.5,1.2v16c0,.5.2.9.5,1.2l5.9,5.9c.3.3.8.5,1.2.5h23c.5,0,.9-.2,1.2-.5l5.9-5.9c.3-.3.5-.8.5-1.2v-5.5c0-.5-.2-1-.5-1.3ZM555.25,31.25c0,1-.8,1.7-1.7,1.7h-24.4c-1,0-1.7-.8-1.7-1.7v-4.4c0-1,.8-1.7,1.7-1.7h24.4c1,0,1.7.8,1.7,1.7h0v4.4h0ZM551.75,18.15c0,1-.8,1.7-1.7,1.7h-21c-1,0-1.7-.8-1.7-1.7v-4.4c0-1,.8-1.7,1.7-1.7h20.9c1,0,1.7.8,1.7,1.7h0l.1,4.4h0Z"/>
          <path class="cls-1" d="M418.65,16.75l-9.4-9.4c-.3-.3-.8-.5-1.2-.5h-19.6c-.5,0-.9.2-1.2.5l-5.9,5.9c-.3.3-.5.8-.5,1.2v16c0,.5.2.9.5,1.2l5.9,5.9c.3.3.8.5,1.2.5h19.5c.5,0,.9-.2,1.2-.5l9.4-9.4c.3-.3.5-.8.5-1.2v-9c.1-.4-.1-.9-.4-1.2ZM387.75,32.95c-1,0-1.7-.8-1.7-1.7V13.75c0-1,.8-1.7,1.7-1.7h17.7c.5,0,.9.2,1.2.5l6.7,6.7c.3.3.5.8.5,1.2v4.8c0,.5-.2.9-.5,1.2l-5.9,5.9c-.3.3-.8.5-1.2.5l-18.5.1Z"/>
          <path class="cls-1" d="M433.05,32.95c-1,0-1.7-.8-1.7-1.7v-4.4c0-1,.8-1.7,1.7-1.7h16.7c.5,0,.9-.2,1.2-.5l4.7-4.7h-22.7c-1,0-1.7-.8-1.7-1.7v-4.4c0-1,.8-1.7,1.7-1.7h29.7l-4.7-4.7c-.3-.3-.8-.5-1.2-.5h-23c-.5,0-.9.2-1.2.5l-5.9,5.9c-.3.3-.5.8-.5,1.2v16c0,.5.2.9.5,1.2l5.9,5.9c.3.3.8.5,1.2.5h23c.5,0,.9-.2,1.2-.5l4.7-4.7h-29.6Z"/>
        </g>
        <g>
          <path class="cls-1" d="M273.9,17.5v-2.8c0-.5-.2-.9-.5-1.2l-6-6c-.3-.3-.8-.5-1.2-.5h-23c-.5,0-.9.2-1.2.5l-6,6c-.3.3-.5.8-.5,1.2v16c0,.5.2.9.5,1.2l6,6c.3.3.8.5,1.2.5h18.5c.6,0,1,.8.5,1.2l-.6.6c-1.1,1.1-2.6,1.7-4.2,1.7h-7.3c-.5,0-.9.2-1.2.5l-3,3h13.2c.5,0,.9-.2,1.2-.5l2.5-2.5c.3-.3.5-.8.5-1.2v-2.8h2.8c.5,0,.9-.2,1.2-.5l6-6c.3-.3.5-.8.5-1.2v-2.8h-5.2v3.5c0,1-.8,1.7-1.7,1.7h-24.4c-1,0-1.7-.8-1.7-1.7V14c0-.9.8-1.7,1.7-1.7h24.5c.9,0,1.7.8,1.7,1.7v3.5h5.2Z"/>
          <path class="cls-1" d="M130.3,10l-2.5-2.5c-.3-.3-.8-.5-1.2-.5h-2.5c-.7,0-1.3.4-1.6,1l-11.9,26.9h0c-.6,1.3-2.5,1.3-3.1,0h0l-12-26.9c-.3-.6-.9-1-1.6-1h-2.5c-.5,0-.9.2-1.2.5l-2.5,2.5c-.3.3-.5.8-.5,1.2v27.2h5.2V15.8c0-.2.2-.2.3-.1l10.2,22.6h12.2l10.2-22.6c.1-.1.3-.1.3.1v22.6h5.2V11.2c0-.5-.2-.9-.5-1.2Z"/>
          <path class="cls-1" d="M364.1,13.5l-5.9-5.9c-.3-.3-.8-.5-1.2-.5h-23c-.5,0-.9.2-1.2.5l-5.9,5.9c-.3.3-.5.8-.5,1.2v16c0,.5.2.9.5,1.2l5.9,5.9c.3.3.8.5,1.2.5h23c.5,0,.9-.2,1.2-.5l5.9-5.9c.3-.3.5-.8.5-1.2V14.7c0-.5-.2-.9-.5-1.2ZM357.6,12.2c1,0,1.7.8,1.7,1.7v17.4c0,1-.8,1.7-1.7,1.7h-24.4c-1,0-1.7-.8-1.7-1.7V14c0-1,.8-1.7,1.7-1.7h24.4v-.1Z"/>
          <g>
            <path class="cls-1" d="M318.7,13.5l-5.9-5.9c-.4-.4-.8-.6-1.3-.6h-23c-.5,0-.9.2-1.2.5l-5.9,5.9c-.3.3-.5.8-.5,1.2v23.7h5.2v-10.4h23.7c.5,0,.9-.2,1.2-.5l1.7-1.7c.5-.4,1.2-.1,1.2.5h0v12.2h5.2V14.7c.1-.5-.1-.9-.4-1.2ZM314,22.7h-23.7c-.5,0-.9.2-1.2.5l-1.7,1.7c-.5.5-1.2.1-1.2-.5v-10.4c0-1,.8-1.7,1.7-1.7h24.4c1,0,1.7.8,1.7,1.7v8.7h0Z"/>
            <path class="cls-1" d="M300.5,4l.7.7c.3.3.8.5,1.2.5h3.8c.5,0,.9-.2,1.2-.5l3-3h-9.7c-.5,0-.9-.2-1.2-.5l-.7-.7c-.3-.3-.8-.5-1.2-.5h-3.8c-.5,0-.9.2-1.2.5l-3,3h9.7c.5,0,.9.2,1.2.5Z"/>
          </g>
          <path class="cls-1" d="M215.8,16.9l-9.4-9.4c-.4-.3-.8-.5-1.3-.5h-19.5c-.5,0-.9.2-1.2.5l-5.9,5.9c-.3.3-.5.8-.5,1.2v16c0,.5.2.9.5,1.2l5.9,5.9c.3.3.8.5,1.2.5h19.5c.5,0,.9-.2,1.2-.5l9.4-9.4c.3-.3.5-.8.5-1.2v-9c.1-.4-.1-.8-.4-1.2ZM184.9,33.2c-1,0-1.7-.8-1.7-1.7V14c0-1,.8-1.7,1.7-1.7h17.7c.5,0,.9.2,1.2.5l6.7,6.7c.3.3.5.8.5,1.2v4.8c0,.5-.2.9-.5,1.2l-5.9,5.9c-.3.3-.8.5-1.2.5l-18.5.1Z"/>
          <path class="cls-1" d="M144.8,33.2c-1,0-1.7-.8-1.7-1.7v-4.4c0-1,.8-1.7,1.7-1.7h16.7c.5,0,.9-.2,1.2-.5l4.7-4.7h-22.7c-1,0-1.7-.8-1.7-1.7v-4.5c0-1,.8-1.7,1.7-1.7h29.7l-4.7-4.7c-.3-.4-.7-.6-1.2-.6h-23c-.5,0-.9.2-1.2.5l-5.9,5.9c-.3.3-.5.8-.5,1.2v16c0,.5.2.9.5,1.2l5.9,5.9c.3.3.8.5,1.2.5h23c.5,0,.9-.2,1.2-.5l4.7-4.7-29.6.2h0Z"/>
          <path class="cls-1" d="M223.3,0v2.8c0,.5.2.9.5,1.2l1.2,1.2c1,1,1,2.5,0,3.5l-1.2,1.2c-.3.3-.5.8-.5,1.2v27.2h5.2V0h-5.2Z"/>
        </g>
      </g>
      <g>
        <polygon class="cls-1" points="49.7 12.2 23.6 12.2 18.3 17.4 18.3 33.1 23.6 33.1 23.6 17.4 28.8 17.4 28.8 26.2 34 26.2 34 17.4 39.2 17.4 39.2 33.1 44.5 33.1 44.5 17.4 49.7 17.4 49.7 26.2 54.9 26.2 54.9 17.4 49.7 12.2"/>
        <g>
          <g>
            <polygon class="cls-1" points="73.3 15.7 73.3 22.7 57.6 7 57.6 0 73.3 15.7"/>
            <polygon class="cls-1" points="73.3 22.7 73.3 29.7 57.6 45.4 57.6 38.4 73.3 22.7"/>
          </g>
          <g>
            <polygon class="cls-1" points="0 29.7 0 22.7 15.7 38.4 15.7 45.4 0 29.7"/>
            <polygon class="cls-1" points="0 22.7 0 15.7 15.7 0 15.7 7 0 22.7"/>
          </g>
        </g>
      </g>
    </g>
  </g>
</svg>