<?xml version="1.0" encoding="UTF-8"?>
<svg id="Camada_2" xmlns="http://www.w3.org/2000/svg" viewBox="0 0 820.8 45.6">
  <defs>
    <style>
      .cls-1 {
        fill: #fff;
      }
    </style>
  </defs>
  <g id="Layer_1">
    <g>
      <g>
        <g>
          <path class="cls-1" d="M443.6,7.6c-.3-.3-.8-.5-1.2-.5h-29.9c-.5,0-.9.2-1.2.5l-4.7,4.7h16.6c1,0,1.7.8,1.7,1.7v24.4h5.2V14.1c0-1,.8-1.7,1.7-1.7h16.6l-4.8-4.8Z"/>
          <path class="cls-1" d="M216.4,17.6v-2.8c0-.5-.2-.9-.5-1.2l-6-6c-.3-.3-.8-.5-1.2-.5h-23c-.5,0-.9.2-1.2.5l-6,6c-.3.3-.5.8-.5,1.2v16c0,.5.2.9.5,1.2l6,6c.3.3.8.5,1.2.5h18.5c.6,0,1,.8.5,1.2l-.6.6c-1.1,1.1-2.6,1.7-4.2,1.7h-7.3c-.5,0-.9.2-1.2.5l-3,3h13.2c.5,0,.9-.2,1.2-.5l2.5-2.5c.3-.3.5-.8.5-1.2v-2.8h2.8c.5,0,.9-.2,1.2-.5l6-6c.3-.3.5-.8.5-1.2v-2.8h-5.2v3.5c0,1-.8,1.7-1.7,1.7h-24.4c-1,0-1.7-.8-1.7-1.7V14.1c0-.9.8-1.7,1.7-1.7h24.5c.9,0,1.7.8,1.7,1.7v3.5h5.2Z"/>
          <path class="cls-1" d="M311.8,10.1l-2.5-2.5c-.3-.3-.8-.5-1.2-.5h-2.5c-.7,0-1.3.4-1.6,1l-12,26.9h0c-.6,1.3-2.5,1.3-3.1,0h0l-11.9-26.8c-.3-.6-.9-1-1.6-1h-2.5c-.5,0-.9.2-1.2.5l-2.5,2.5c-.3.3-.5.8-.5,1.2v27.2h5.2V15.9c0-.2.2-.2.3-.1l10.2,22.6h12.2l10.2-22.6c.1-.1.3-.1.3.1v22.6h5.2V11.3c0-.4-.2-.9-.5-1.2Z"/>
          <path class="cls-1" d="M397.8,7.1v26.2c0,1.3-1.5,1.9-2.5,1l-26.7-26.7c-.3-.3-.8-.5-1.2-.5h-3.8c-.5,0-.9.2-1.2.5l-2.5,2.5c-.3.3-.5.8-.5,1.2v27.2h5.2V14.8c0-1.3,1.6-1.9,2.5-1l24.7,24.7h11.2V7.1h-5.2Z"/>
          <path class="cls-1" d="M125.1,13.6l-5.9-5.9c-.3-.3-.8-.5-1.2-.5h-23c-.5,0-.9.2-1.2.5l-5.9,5.9c-.3.3-.5.8-.5,1.2v16c0,.5.2.9.5,1.2l5.9,5.9c.3.3.8.5,1.2.5h23c.5,0,.9-.2,1.2-.5l5.9-5.9c.3-.3.5-.8.5-1.2V14.8c0-.4-.1-.9-.5-1.2ZM118.7,12.4c1,0,1.7.8,1.7,1.7v17.4c0,1-.8,1.7-1.7,1.7h-24.5c-1,0-1.7-.8-1.7-1.7V14.1c0-1,.8-1.7,1.7-1.7,0,0,24.5,0,24.5,0Z"/>
          <path class="cls-1" d="M489.7,13.6l-5.9-5.9c-.3-.3-.8-.5-1.2-.5h-23c-.5,0-.9.2-1.2.5l-5.9,5.9c-.3.3-.5.8-.5,1.2v16c0,.5.2.9.5,1.2l5.9,5.9c.3.3.8.5,1.2.5h23c.5,0,.9-.2,1.2-.5l5.9-5.9c.3-.3.5-.8.5-1.2V14.8c0-.4-.2-.9-.5-1.2ZM483.2,12.4c1,0,1.7.8,1.7,1.7v17.4c0,1-.8,1.7-1.7,1.7h-24.4c-1,0-1.7-.8-1.7-1.7V14.1c0-1,.8-1.7,1.7-1.7,0,0,24.4,0,24.4,0Z"/>
          <g>
            <polygon class="cls-1" points="162.3 29.8 161.8 29.3 161.8 29.3 162.3 29.8"/>
            <path class="cls-1" d="M162.3,28.1h1c.5,0,.9-.2,1.2-.5l5.9-5.9c.3-.3.5-.8.5-1.2v-5.5c0-.5-.2-.9-.5-1.2l-5.9-5.9c-.3-.3-.8-.5-1.2-.5h-23c-.5,0-.9.2-1.2.5l-5.9,5.9c-.3.3-.5.8-.5,1.2v23.7h5.2v-8.7c0-1,.8-1.7,1.7-1.7h12.2c1.1,0,2.2.4,2.9,1.2l9.2,9.2h7l-9.2-9.2h0c-.4-.7-.1-1.4.6-1.4ZM165.8,21.1c0,1-.8,1.7-1.7,1.7h-24.4c-1,0-1.7-.8-1.7-1.7v-7c0-1,.8-1.7,1.7-1.7h24.3c1,0,1.7.8,1.7,1.7v7h.1Z"/>
          </g>
          <path class="cls-1" d="M261.2,13.6l-5.9-5.9c-.3-.3-.8-.5-1.2-.5h-23c-.5,0-.9.2-1.2.5l-5.9,5.9c-.3.3-.5.8-.5,1.2v23.7h5.2v-10.4h23.7c.5,0,.9-.2,1.2-.5l1.7-1.7c.5-.4,1.2-.1,1.2.5h0v12.2h5.2V14.8c0-.4-.2-.9-.5-1.2ZM232.8,22.8c-.5,0-.9.2-1.2.5l-1.7,1.7c-.5.5-1.2.1-1.2-.5v-10.4c0-1,.8-1.7,1.7-1.7h24.4c1,0,1.7.8,1.7,1.7v8.7h-23.7Z"/>
          <path class="cls-1" d="M326.2,33.3c-1,0-1.7-.8-1.7-1.7v-4.4c0-1,.8-1.7,1.7-1.7h16.8c.5,0,.9-.2,1.2-.5l4.7-4.7h-22.7c-1,0-1.7-.8-1.7-1.7v-4.4c0-1,.8-1.7,1.7-1.7h29.7l-4.7-4.7c-.3-.3-.8-.5-1.2-.5h-23c-.5,0-.9.2-1.2.5l-5.9,5.9c-.3.3-.5.8-.5,1.2v16c0,.5.2.9.5,1.2l5.9,5.9c.3.3.8.5,1.2.5h23c.5,0,.9-.2,1.2-.5l4.7-4.7h-29.7Z"/>
        </g>
        <g>
          <path class="cls-1" d="M820.8,17.25v-2.8c0-.5-.2-.9-.5-1.2l-5.9-5.9c-.3-.3-.8-.5-1.2-.5h-23c-.5,0-.9.2-1.2.5l-5.9,5.9c-.3.3-.5.8-.5,1.2v2c0,.5.2.9.5,1.2l6.8,6.8c.3.3.8.5,1.2.5h22.8c1,0,1.7.8,1.7,1.7v4.4c0,.9-.8,1.7-1.7,1.7h-24.5c-1,0-1.7-.8-1.7-1.7v-3.5h-5.2v2.8c0,.5.2.9.5,1.2l5.9,5.9c.3.3.8.5,1.2.5h23c.5,0,.9-.2,1.2-.5l5.9-5.9c.3-.3.5-.8.5-1.2v-2c0-.5-.2-.9-.5-1.2l-6.8-6.8c-.3-.3-.8-.5-1.2-.5h-22.8c-1,0-1.7-.8-1.7-1.7v-4.4c0-1,.8-1.7,1.7-1.7h24.4c1,0,1.7.8,1.7,1.7v3.6l5.3-.1Z"/>
          <path class="cls-1" d="M638.8,13.25l-5.9-5.9c-.3-.3-.8-.5-1.2-.5h-23c-.5,0-.9.2-1.2.5l-5.9,5.9c-.3.3-.5.8-.5,1.2v16c0,.5.2.9.5,1.2l5.9,5.9c.3.3.8.5,1.2.5h23c.5,0,.9-.2,1.2-.5l5.9-5.9c.3-.3.5-.8.5-1.2V14.45c.1-.4-.1-.8-.5-1.2ZM632.4,12.05c1,0,1.7.8,1.7,1.7v17.4c0,1-.8,1.7-1.7,1.7h-24.4c-1,0-1.7-.8-1.7-1.7V13.85c0-1,.8-1.7,1.7-1.7h24.4v-.1Z"/>
          <g>
            <polygon class="cls-1" points="721.3 29.55 720.8 29.05 720.8 29.05 721.3 29.55"/>
            <path class="cls-1" d="M721.3,27.75h1c.5,0,.9-.2,1.2-.5l5.9-5.9c.3-.3.5-.8.5-1.2v-5.5c0-.5-.2-.9-.5-1.2l-5.9-5.9c-.3-.3-.8-.5-1.2-.5h-23c-.5,0-.9.2-1.2.5l-5.9,5.9c-.3.3-.5.8-.5,1.2v23.7h5.2v-8.7c0-1,.8-1.7,1.7-1.7h12.2c1.1,0,2.2.4,2.9,1.2l9.2,9.2h7l-9.2-9.2h0c-.3-.6,0-1.4.6-1.4ZM724.8,20.75c0,1-.8,1.7-1.7,1.7h-24.4c-1,0-1.7-.8-1.7-1.7v-7c0-1,.8-1.7,1.7-1.7h24.4c1,0,1.7.8,1.7,1.7v7Z"/>
          </g>
          <path class="cls-1" d="M774.9,13.25l-5.9-5.9c-.3-.3-.8-.5-1.2-.5h-23c-.5,0-.9.2-1.2.5l-5.9,5.9c-.3.3-.5.8-.5,1.2v23.7h5.2v-10.4h23.7c.5,0,.9-.2,1.2-.5l1.7-1.7c.5-.4,1.2-.1,1.2.5h0v12.2h5.2V14.55c0-.5-.2-.9-.5-1.3ZM746.5,22.55c-.5,0-.9.2-1.2.5l-1.7,1.7c-.5.5-1.2.1-1.2-.5v-10.4c0-1,.8-1.7,1.7-1.7h24.4c1,0,1.7.8,1.7,1.7v8.7h-23.7Z"/>
          <path class="cls-1" d="M684.2,23.75l-3-3v-6.2c0-.5-.2-.9-.5-1.2l-5.9-6c-.3-.3-.8-.5-1.2-.5h-19.5c-.5,0-.9.2-1.2.5l-5.9,5.9c-.3.3-.5.8-.5,1.2v16c0,.5.2.9.5,1.2l5.9,5.9c.3.3.8.5,1.2.5h23c.5,0,.9-.2,1.2-.5l5.9-5.9c.3-.3.5-.8.5-1.2v-5.5c0-.4-.2-.9-.5-1.2ZM679.5,31.25c0,1-.8,1.7-1.7,1.7h-24.4c-1,0-1.7-.8-1.7-1.7v-4.4c0-1,.8-1.7,1.7-1.7h24.4c1,0,1.7.8,1.7,1.7h0v4.4h0ZM676,18.15c0,1-.8,1.7-1.7,1.7h-21c-1,0-1.7-.8-1.7-1.7v-4.4c0-1,.8-1.7,1.7-1.7h20.9c1,0,1.7.8,1.7,1.7h0l.1,4.4h0Z"/>
          <path class="cls-1" d="M542.9,16.75l-9.4-9.4c-.3-.3-.8-.5-1.2-.5h-19.5c-.5,0-.9.2-1.2.5l-5.9,5.9c-.3.3-.5.8-.5,1.2v16c0,.5.2.9.5,1.2l5.9,5.9c.3.3.8.5,1.2.5h19.5c.5,0,.9-.2,1.2-.5l9.4-9.4c.3-.3.5-.8.5-1.2v-9c0-.4-.1-.8-.5-1.2ZM512,33.05c-1,0-1.7-.8-1.7-1.7V13.85c0-1,.8-1.7,1.7-1.7h17.8c.5,0,.9.2,1.2.5l6.7,6.7c.3.3.5.8.5,1.2v4.8c0,.5-.2.9-.5,1.2l-5.9,5.9c-.3.3-.8.5-1.2.5l-18.6.1Z"/>
          <path class="cls-1" d="M557.4,32.95c-1,0-1.7-.8-1.7-1.7v-4.4c0-1,.8-1.7,1.7-1.7h16.7c.5,0,.9-.2,1.2-.5l4.7-4.7h-22.7c-1,0-1.7-.8-1.7-1.7v-4.4c0-1,.8-1.7,1.7-1.7h29.7l-4.7-4.7c-.3-.3-.8-.5-1.2-.5h-23c-.5,0-.9.2-1.2.5l-5.9,5.9c-.3.3-.5.8-.5,1.2v16c0,.5.2.9.5,1.2l5.9,5.9c.3.3.8.5,1.2.5h23c.5,0,.9-.2,1.2-.5l4.7-4.7h-29.6Z"/>
        </g>
      </g>
      <g>
        <g>
          <polygon class="cls-1" points="20.9 33.2 47.1 33.4 52.3 28.2 20.9 27.9 20.9 33.2"/>
          <polygon class="cls-1" points="26.3 12.3 21 17.5 52.4 17.7 52.4 12.5 26.3 12.3"/>
        </g>
        <g>
          <g>
            <polygon class="cls-1" points="73.4 16.1 73.3 23.1 57.7 7.3 57.8 .3 73.4 16.1"/>
            <polygon class="cls-1" points="73.3 23.1 73.3 30 57.5 45.6 57.5 38.7 73.3 23.1"/>
          </g>
          <g>
            <polygon class="cls-1" points="0 29.5 0 22.6 15.6 38.4 15.6 45.4 0 29.5"/>
            <polygon class="cls-1" points="0 22.6 .1 15.6 15.9 0 15.9 7 0 22.6"/>
          </g>
        </g>
      </g>
    </g>
  </g>
</svg>