<?xml version="1.0" encoding="utf-8"?>
<!-- Generator: Adobe Illustrator 28.1.0, SVG Export Plug-In . SVG Version: 6.00 Build 0)  -->
<svg version="1.1" id="Layer_1" xmlns="http://www.w3.org/2000/svg" xmlns:xlink="http://www.w3.org/1999/xlink" x="0px" y="0px"
	 viewBox="0 0 369.8 45.4" style="enable-background:new 0 0 369.8 45.4;" xml:space="preserve">
<style type="text/css">
	.st0{fill:#FFFFFF;}
</style>
<g>
	<g>
		<g>
			<path class="st0" d="M216.3,17.4v-2.8c0-0.5-0.2-0.9-0.5-1.2l-6-6c-0.3-0.3-0.8-0.5-1.2-0.5h-23c-0.5,0-0.9,0.2-1.2,0.5l-6,6
				c-0.3,0.3-0.5,0.8-0.5,1.2v16c0,0.5,0.2,0.9,0.5,1.2l6,6c0.3,0.3,0.8,0.5,1.2,0.5h18.5l0,0c0.6,0,1,0.8,0.5,1.2l-0.6,0.6
				c-1.1,1.1-2.6,1.7-4.2,1.7h-7.3c-0.5,0-0.9,0.2-1.2,0.5l-3,3h13.2c0.5,0,0.9-0.2,1.2-0.5l2.5-2.5c0.3-0.3,0.5-0.8,0.5-1.2v-2.8
				h2.8c0.5,0,0.9-0.2,1.2-0.5l6-6c0.3-0.3,0.5-0.8,0.5-1.2v-2.8l-5.2,0l0,3.5c0,1-0.8,1.7-1.7,1.7h-24.4c-1,0-1.7-0.8-1.7-1.7V14
				c0-0.9,0.8-1.7,1.7-1.7h24.5c0.9,0,1.7,0.8,1.7,1.7v3.5L216.3,17.4z M202.4,41.9L202.4,41.9L202.4,41.9L202.4,41.9z"/>
		</g>
		<g>
			<path class="st0" d="M369.3,10l-2.5-2.5c-0.3-0.3-0.8-0.5-1.2-0.5h-2.5c-0.7,0-1.3,0.4-1.6,1l-11.9,26.9v0
				c-0.6,1.3-2.5,1.3-3.1,0h0v0L334.5,8c-0.3-0.6-0.9-1-1.6-1h-2.5c-0.5,0-0.9,0.2-1.2,0.5l-2.5,2.5c-0.3,0.3-0.5,0.8-0.5,1.2v27.2
				h5.2V15.8c0-0.2,0.2-0.2,0.3-0.1l10.2,22.6h12.2l10.2-22.6c0.1-0.1,0.3-0.1,0.3,0.1v22.6h5.2V11.2
				C369.8,10.7,369.6,10.3,369.3,10z"/>
		</g>
		<g>
			<path class="st0" d="M125.1,13.4l-5.9-5.9c-0.3-0.3-0.8-0.5-1.2-0.5h-23c-0.5,0-0.9,0.2-1.2,0.5l-5.9,5.9
				c-0.3,0.3-0.5,0.8-0.5,1.2v16c0,0.5,0.2,0.9,0.5,1.2l5.9,5.9c0.3,0.3,0.8,0.5,1.2,0.5h23c0.5,0,0.9-0.2,1.2-0.5l5.9-5.9
				c0.3-0.3,0.5-0.8,0.5-1.2v-16C125.6,14.2,125.4,13.8,125.1,13.4z M118.6,12.2c1,0,1.7,0.8,1.7,1.7v17.4c0,1-0.8,1.7-1.7,1.7H94.2
				c-1,0-1.7-0.8-1.7-1.7V14c0-1,0.8-1.7,1.7-1.7H118.6z"/>
		</g>
		<g>
			<g>
				<polygon class="st0" points="162.2,29.7 161.7,29.1 161.7,29.1 				"/>
				<path class="st0" d="M162.2,27.9h1c0.5,0,0.9-0.2,1.2-0.5l5.9-5.9c0.3-0.3,0.5-0.8,0.5-1.2v-5.5c0-0.5-0.2-0.9-0.5-1.2l-5.9-5.9
					c-0.3-0.3-0.8-0.5-1.2-0.5h-23c-0.5,0-0.9,0.2-1.2,0.5l-5.9,5.9c-0.3,0.3-0.5,0.8-0.5,1.2v23.7h5.2v-8.7c0-1,0.8-1.7,1.7-1.7
					l12.2,0c1.1,0,2.2,0.4,2.9,1.2l9.2,9.2h7l-9.2-9.2l0,0C161.3,28.7,161.6,27.9,162.2,27.9z M165.7,20.9c0,1-0.8,1.7-1.7,1.7
					h-24.4c-1,0-1.7-0.8-1.7-1.7v-7c0-1,0.8-1.7,1.7-1.7H164c1,0,1.7,0.8,1.7,1.7V20.9z"/>
			</g>
		</g>
		<g>
			<path class="st0" d="M261.2,13.4l-5.9-5.9C254.9,7.2,254.4,7,254,7h-23c-0.5,0-0.9,0.2-1.2,0.5l-5.9,5.9
				c-0.3,0.3-0.5,0.8-0.5,1.2v23.7h5.2V27.9h23.7c0.5,0,0.9-0.2,1.2-0.5l1.7-1.7c0.5-0.4,1.2-0.1,1.2,0.5l0,0v12.2h5.2V14.7
				C261.7,14.2,261.5,13.8,261.2,13.4z M232.7,22.7c-0.5,0-0.9,0.2-1.2,0.5l-1.7,1.7c-0.5,0.5-1.2,0.1-1.2-0.5V14
				c0-1,0.8-1.7,1.7-1.7h24.4c1,0,1.7,0.8,1.7,1.7v8.7H232.7z"/>
		</g>
		<g>
			<path class="st0" d="M306.5,23.9l-3-3v-6.2c0-0.5-0.2-0.9-0.5-1.2l-5.9-5.9c-0.3-0.3-0.8-0.5-1.2-0.5h-19.5
				c-0.5,0-0.9,0.2-1.2,0.5l-5.9,5.9c-0.3,0.3-0.5,0.8-0.5,1.2v16c0,0.5,0.2,0.9,0.5,1.2l5.9,5.9c0.3,0.3,0.8,0.5,1.2,0.5l23,0
				c0.5,0,0.9-0.2,1.2-0.5l5.9-5.9c0.3-0.3,0.5-0.8,0.5-1.2v-5.5C307,24.7,306.8,24.2,306.5,23.9z M301.8,31.4c0,1-0.8,1.7-1.7,1.7
				l0,0h-24.4l0,0c-1,0-1.7-0.8-1.7-1.7V27c0-1,0.8-1.7,1.7-1.7l0,0h24.4l0,0c1,0,1.7,0.8,1.7,1.7l0,0L301.8,31.4L301.8,31.4z
				 M298.3,18.3c0,1-0.8,1.7-1.7,1.7h-21c-1,0-1.7-0.8-1.7-1.7v-4.4c0-1,0.8-1.7,1.7-1.7l0,0h20.9l0,0c1,0,1.7,0.8,1.7,1.7l0,0
				L298.3,18.3L298.3,18.3z"/>
		</g>
		<g>
			<path class="st0" d="M314,0v2.8c0,0.5,0.2,0.9,0.5,1.2l1.2,1.2c1,1,1,2.5,0,3.5l-1.2,1.2c-0.3,0.3-0.5,0.8-0.5,1.2v27.2h5.2V0
				H314z"/>
		</g>
	</g>
	<g>
		<g>
			<polygon class="st0" points="73.3,15.7 73.3,22.7 57.6,7 57.6,0 			"/>
			<polygon class="st0" points="73.3,22.7 73.3,29.7 57.6,45.4 57.6,38.4 			"/>
		</g>
		<g>
			<polygon class="st0" points="0,29.7 0,22.7 15.7,38.4 15.7,45.4 			"/>
			<polygon class="st0" points="0,22.7 0,15.7 15.7,0 15.7,7 			"/>
		</g>
		<g>
			<polygon class="st0" points="29.7,12.2 43.6,12.2 48.8,7 29.7,7 24.4,12.2 24.4,20.1 29.7,14.8 			"/>
			<polygon class="st0" points="43.6,33.1 29.6,33.1 24.4,38.4 43.6,38.4 48.8,33.1 48.8,33.1 48.8,25.3 43.6,30.5 			"/>
			<polygon class="st0" points="48.8,12.2 43.6,17.4 43.6,20.1 29.7,20.1 24.4,25.3 24.4,33.1 29.7,27.9 29.7,25.3 43.6,25.3 
				48.8,20.1 48.8,20.1 			"/>
		</g>
	</g>
</g>
</svg>
