<?xml version="1.0" encoding="UTF-8"?>
<svg id="Camada_2" xmlns="http://www.w3.org/2000/svg" viewBox="0 0 617.4 45.4">
  <defs>
    <style>
      .cls-1 {
        fill: #fff;
      }
    </style>
  </defs>
  <g id="Layer_1">
    <g>
      <g>
        <g>
          <g>
            <polygon class="cls-1" points="73.3 15.7 73.3 22.7 57.6 7 57.6 0 73.3 15.7"/>
            <polygon class="cls-1" points="73.3 22.7 73.3 29.7 57.6 45.4 57.6 38.4 73.3 22.7"/>
          </g>
          <g>
            <polygon class="cls-1" points="0 29.7 0 22.7 15.7 38.4 15.7 45.4 0 29.7"/>
            <polygon class="cls-1" points="0 22.7 0 15.7 15.7 0 15.7 7 0 22.7"/>
          </g>
        </g>
        <path class="cls-1" d="M52.3,12.2h0l-5.2-5.2h-20.9l-5.2,5.2h0l12.2,10.5-12.3,10.4,5.2,5.2h20.9l5.2-5.2-12.1-10.4,12.2-10.5ZM27.9,12.2h17.4l-8.7,7.5-8.7-7.5ZM45.4,33.1h-17.5l8.7-7.5,8.8,7.5Z"/>
      </g>
      <g>
        <g>
          <path class="cls-1" d="M334.9,7v24.4h0c0,1-.8,1.7-1.7,1.7h-21c-1,0-1.7-.8-1.7-1.7v.1-7h-5.2v6.2c0,.5.2.9.5,1.2l5.9,5.9c.3.3.8.5,1.2.5h19.5c.5,0,.9-.2,1.2-.5l5.9-5.9c.3-.3.5-.8.5-1.2V7h-5.1Z"/>
          <path class="cls-1" d="M139.6,33.1c-1,0-1.7-.8-1.7-1.7V7h-5.2v23.7c0,.5.2.9.5,1.2l5.9,5.9c.3.3.8.5,1.2.5h19.5c.5,0,.9-.2,1.2-.5l4.7-4.7s-26.1,0-26.1,0Z"/>
          <path class="cls-1" d="M252.9,7v26.2c0,1.3-1.5,1.9-2.5,1l-26.6-26.7c-.3-.3-.8-.5-1.2-.5h-3.8c-.5,0-.9.2-1.2.5l-2.5,2.5c-.3.3-.5.8-.5,1.2v27.2h5.2V14.7c0-1.3,1.6-1.9,2.5-1l24.7,24.7h11.2V7h-5.3Z"/>
          <path class="cls-1" d="M125.1,13.4l-5.9-5.9c-.3-.3-.8-.5-1.2-.5h-23c-.5,0-.9.2-1.2.5l-5.9,5.9c-.3.3-.5.8-.5,1.2v23.7h5.2v-7c0-1,.8-1.7,1.7-1.7h23.7c.5,0,.9-.2,1.2-.5l5.9-5.9c.3-.3.5-.8.5-1.2v-7.3c0-.5-.2-.9-.5-1.3ZM118.7,24.4h-24.5c-1,0-1.7-.8-1.7-1.7v-8.7c0-1,.8-1.7,1.7-1.7h24.4c1,0,1.7.8,1.7,1.7v8.7c.1.9-.7,1.7-1.6,1.7Z"/>
          <path class="cls-1" d="M207.1,13.4l-5.9-5.9c-.3-.3-.8-.5-1.2-.5h-23c-.5,0-.9.2-1.2.5l-5.9,5.9c-.3.3-.5.8-.5,1.2v23.7h5.2v-10.4h23.7c.5,0,.9-.2,1.2-.5l1.7-1.7c.5-.4,1.2-.1,1.2.5h0v12.2h5.2V14.7c0-.5-.2-.9-.5-1.3ZM178.7,22.7c-.5,0-.9.2-1.2.5l-1.7,1.7c-.5.5-1.2.1-1.2-.5v-10.4c0-1,.8-1.7,1.7-1.7h24.4c1,0,1.7.8,1.7,1.7v8.7h-23.7Z"/>
          <path class="cls-1" d="M385,13.4l-5.9-5.9c-.3-.3-.8-.5-1.2-.5h-23c-.5,0-.9.2-1.2.5l-5.9,5.9c-.3.3-.5.8-.5,1.2v23.7h5.2v-10.4h23.7c.5,0,.9-.2,1.2-.5l1.7-1.7c.5-.4,1.2-.1,1.2.5h0v12.2h5.2V14.7c0-.5-.2-.9-.5-1.3ZM356.6,22.7c-.5,0-.9.2-1.2.5l-1.7,1.7c-.5.5-1.2.1-1.2-.5v-10.4c0-1,.8-1.7,1.7-1.7h24.4c1,0,1.7.8,1.7,1.7v8.7h-23.7Z"/>
          <path class="cls-1" d="M272.1,33.1c-1,0-1.7-.8-1.7-1.7v-4.4c0-1,.8-1.7,1.7-1.7h16.7c.5,0,.9-.2,1.2-.5l4.7-4.7h-22.7c-1,0-1.7-.8-1.7-1.7v-4.4c0-1,.8-1.7,1.7-1.7h29.7l-4.7-4.7c-.3-.3-.8-.5-1.2-.5h-23c-.5,0-.9.2-1.2.5l-5.9,5.9c-.3.3-.5.8-.5,1.2v16c0,.5.2.9.5,1.2l5.9,5.9c.3.3.8.5,1.2.5h23c.5,0,.9-.2,1.2-.5l4.7-4.7h-29.6Z"/>
        </g>
        <g>
          <path class="cls-1" d="M570.88,7.7c-.3-.3-.8-.5-1.2-.5h-29.9c-.5,0-.9.2-1.2.5l-4.7,4.7h16.6c1,0,1.7.8,1.7,1.7v24.4h5.2V14.1c0-1,.8-1.7,1.7-1.7h16.6l-4.8-4.7Z"/>
          <path class="cls-1" d="M435.48,10.1l-2.5-2.5c-.3-.3-.8-.5-1.2-.5h-2.5c-.7,0-1.3.4-1.6,1l-11.9,26.9h0c-.6,1.3-2.5,1.3-3.1,0h0l-12-26.8c-.3-.6-.9-1-1.6-1h-2.5c-.5,0-.9.2-1.2.5l-2.5,2.5c-.3.3-.5.8-.5,1.2v27.2h5.2v-22.6c0-.2.2-.2.3-.1l10.2,22.6h12.2l10.2-22.6c.1-.1.3-.1.3.1v22.6h5.2V11.4c0-.5-.2-1-.5-1.3Z"/>
          <path class="cls-1" d="M524.98,7.1v26.2c0,1.3-1.5,1.9-2.5,1l-26.7-26.7c-.3-.3-.8-.5-1.2-.5h-3.8c-.5,0-.9.2-1.2.5l-2.5,2.5c-.3.3-.5.8-.5,1.2v27.2h5.2V14.8c0-1.3,1.6-1.9,2.5-1l24.7,24.7h11.2V7.1h-5.2Z"/>
          <path class="cls-1" d="M616.88,13.6l-5.9-5.9c-.3-.3-.8-.5-1.2-.5h-23c-.5,0-.9.2-1.2.5l-5.9,5.9c-.3.3-.5.8-.5,1.2v16c0,.5.2.9.5,1.2l5.9,5.9c.3.3.8.5,1.2.5h23c.5,0,.9-.2,1.2-.5l5.9-5.9c.3-.3.5-.8.5-1.2V14.8c.1-.4-.1-.9-.5-1.2ZM610.47,12.4c1,0,1.7.8,1.7,1.7v17.4c0,1-.8,1.7-1.7,1.7h-24.4c-1,0-1.7-.8-1.7-1.7V14.1c0-1,.8-1.7,1.7-1.7h24.4Z"/>
          <path class="cls-1" d="M449.98,33.3c-1,0-1.7-.8-1.7-1.7v-4.4c0-1,.8-1.7,1.7-1.7h16.7c.5,0,.9-.2,1.2-.5l4.7-4.7h-22.7c-1,0-1.7-.8-1.7-1.7v-4.4c0-1,.8-1.7,1.7-1.7h29.7l-4.7-4.7c-.3-.3-.8-.5-1.2-.5h-23c-.5,0-.9.2-1.2.5l-5.9,5.9c-.3.3-.5.8-.5,1.2v16c0,.5.2.9.5,1.2l5.9,5.9c.3.3.8.5,1.2.5h23c.5,0,.9-.2,1.2-.5l4.7-4.7h-29.6Z"/>
        </g>
      </g>
    </g>
  </g>
</svg>